<?xml version="1.0" encoding="utf-8"?>
<!-- Generator: Adobe Illustrator 24.2.3, SVG Export Plug-In . SVG Version: 6.00 Build 0)  -->
<svg version="1.1" id="Layer_1" xmlns="http://www.w3.org/2000/svg" xmlns:xlink="http://www.w3.org/1999/xlink" x="0px" y="0px"
	 viewBox="0 0 250 50" style="enable-background:new 0 0 250 50;" xml:space="preserve">
<style type="text/css">
	.st0{fill:#38485C;}
	.st1{clip-path:url(#SVGID_2_);enable-background:new    ;}
	.st2{clip-path:url(#SVGID_4_);fill:#38485C;}
</style>
<g>
	<g>
		<g>
			<path class="st0" d="M106.21,36.88c-1.86-1.08-3.3-2.64-4.31-4.66c-1.01-2.02-1.52-4.39-1.52-7.1c0-2.71,0.5-5.08,1.5-7.09
				c1-2.01,2.44-3.56,4.31-4.64c1.87-1.08,4.08-1.63,6.62-1.63c2.54,0,4.74,0.54,6.6,1.63c1.86,1.09,3.29,2.63,4.29,4.64
				c1,2.01,1.5,4.37,1.5,7.09c0,2.71-0.51,5.08-1.52,7.1c-1.01,2.02-2.45,3.58-4.31,4.66c-1.86,1.09-4.05,1.63-6.57,1.63
				C110.27,38.5,108.07,37.96,106.21,36.88z M118.42,32.21c1.34-1.65,2.02-4.02,2.02-7.1c0-3.08-0.67-5.45-2.02-7.09
				c-1.34-1.64-3.21-2.46-5.61-2.46c-2.42,0-4.3,0.82-5.64,2.46c-1.34,1.64-2.02,4-2.02,7.09c0,3.08,0.67,5.45,2.02,7.1
				c1.34,1.65,3.22,2.48,5.64,2.48C115.21,34.69,117.08,33.87,118.42,32.21z"/>
		</g>
		<g>
			<path class="st0" d="M144.12,20.78c1.21,0.76,2.15,1.85,2.83,3.26c0.68,1.41,1.02,3.05,1.02,4.92c0,1.88-0.34,3.53-1.02,4.98
				c-0.68,1.44-1.63,2.56-2.85,3.35s-2.61,1.18-4.16,1.18c-1.31,0-2.47-0.28-3.5-0.85c-1.02-0.57-1.81-1.36-2.35-2.37v0.92
				c0,0.67-0.21,1.2-0.63,1.59c-0.42,0.4-0.98,0.59-1.67,0.59c-0.69,0-1.24-0.2-1.65-0.59c-0.41-0.39-0.61-0.92-0.61-1.59V14.05
				c0-0.64,0.22-1.16,0.65-1.55c0.43-0.39,0.99-0.59,1.68-0.59c0.69,0,1.25,0.18,1.67,0.55s0.63,0.88,0.63,1.52v8.73
				c0.54-0.99,1.32-1.75,2.33-2.28s2.16-0.8,3.44-0.8C141.51,19.63,142.91,20.02,144.12,20.78z M142.12,33.33
				c0.81-1.04,1.22-2.49,1.22-4.37c0-1.85-0.4-3.27-1.2-4.25c-0.8-0.99-1.94-1.48-3.42-1.48c-1.48,0-2.62,0.5-3.42,1.5
				c-0.8,1-1.2,2.44-1.2,4.31s0.4,3.32,1.2,4.33c0.8,1.01,1.94,1.52,3.42,1.52C140.17,34.88,141.31,34.36,142.12,33.33z"/>
		</g>
		<g>
			<path class="st0" d="M167.04,33.7c0.26,0.32,0.39,0.75,0.39,1.29c0,0.76-0.46,1.41-1.37,1.92c-0.84,0.47-1.79,0.84-2.85,1.13
				s-2.07,0.43-3.03,0.43c-2.91,0-5.22-0.84-6.92-2.52s-2.55-3.97-2.55-6.88c0-1.85,0.37-3.49,1.11-4.92
				c0.74-1.43,1.78-2.54,3.13-3.33c1.34-0.79,2.87-1.18,4.57-1.18c1.63,0,3.05,0.36,4.25,1.07c1.21,0.72,2.15,1.73,2.81,3.03
				s1,2.85,1,4.62c0,1.06-0.47,1.59-1.41,1.59h-10.92c0.15,1.7,0.63,2.95,1.44,3.75c0.81,0.8,2,1.2,3.55,1.2
				c0.79,0,1.49-0.1,2.09-0.3c0.6-0.2,1.29-0.47,2.05-0.81c0.74-0.39,1.28-0.59,1.63-0.59C166.44,33.21,166.78,33.38,167.04,33.7z
				 M156.6,24.08c-0.75,0.79-1.2,1.92-1.35,3.4h8.36c-0.05-1.5-0.42-2.65-1.11-3.42c-0.69-0.78-1.65-1.17-2.89-1.17
				C158.36,22.89,157.36,23.29,156.6,24.08z"/>
		</g>
		<g>
			<path class="st0" d="M171.92,37.82c-0.43-0.38-0.65-0.93-0.65-1.65V14.08c0-0.71,0.22-1.26,0.65-1.63
				c0.43-0.37,0.98-0.55,1.65-0.55s1.22,0.18,1.66,0.55c0.44,0.37,0.67,0.91,0.67,1.63v22.09c0,0.72-0.22,1.26-0.67,1.65
				c-0.44,0.38-1,0.57-1.66,0.57S172.35,38.2,171.92,37.82z"/>
		</g>
		<g>
			<path class="st0" d="M180.9,15.73c-0.49-0.46-0.74-1.05-0.74-1.79c0-0.74,0.25-1.33,0.74-1.78c0.49-0.44,1.16-0.67,2-0.67
				c0.81,0,1.47,0.22,1.98,0.67c0.5,0.44,0.76,1.04,0.76,1.78c0,0.74-0.25,1.34-0.74,1.79c-0.49,0.46-1.16,0.68-2,0.68
				C182.05,16.42,181.39,16.19,180.9,15.73z M181.25,37.82c-0.43-0.38-0.65-0.93-0.65-1.65V21.89c0-0.71,0.22-1.26,0.65-1.63
				s0.98-0.55,1.65-0.55s1.22,0.18,1.66,0.55c0.45,0.37,0.67,0.91,0.67,1.63v14.28c0,0.72-0.22,1.26-0.67,1.65
				c-0.44,0.38-1,0.57-1.66,0.57S181.68,38.2,181.25,37.82z"/>
		</g>
		<g>
			<path class="st0" d="M189.96,36.88c-0.79-0.47-1.18-1.13-1.18-2c0-0.49,0.13-0.89,0.41-1.2s0.6-0.46,1-0.46
				c0.42,0,1,0.2,1.74,0.59c0.79,0.37,1.51,0.65,2.16,0.85c0.65,0.2,1.49,0.3,2.5,0.3c1.04,0,1.84-0.17,2.42-0.52
				c0.58-0.34,0.87-0.83,0.87-1.44c0-0.42-0.12-0.75-0.35-1s-0.65-0.47-1.26-0.68c-0.61-0.21-1.52-0.45-2.76-0.72
				c-2.2-0.44-3.77-1.07-4.72-1.89c-0.95-0.81-1.42-1.94-1.42-3.37c0-1.08,0.32-2.07,0.96-2.94s1.52-1.55,2.65-2.04
				c1.12-0.48,2.4-0.72,3.83-0.72c1.04,0,2.03,0.13,3,0.39c0.96,0.26,1.83,0.64,2.59,1.13c0.79,0.49,1.18,1.15,1.18,1.96
				c0,0.49-0.14,0.91-0.41,1.24s-0.6,0.5-1,0.5c-0.27,0-0.54-0.06-0.8-0.17c-0.26-0.11-0.59-0.28-0.98-0.5
				c-0.71-0.37-1.33-0.65-1.85-0.83c-0.52-0.19-1.16-0.28-1.92-0.28c-0.91,0-1.63,0.18-2.16,0.55c-0.53,0.37-0.8,0.88-0.8,1.52
				c0,0.62,0.27,1.09,0.81,1.41c0.54,0.32,1.59,0.64,3.15,0.96c1.65,0.35,2.95,0.74,3.88,1.18c0.94,0.44,1.61,1,2.02,1.67
				c0.41,0.67,0.61,1.52,0.61,2.55c0,1.68-0.7,3.02-2.09,4.03c-1.39,1.01-3.25,1.52-5.57,1.52
				C193.78,38.47,191.61,37.94,189.96,36.88z"/>
		</g>
		<g>
			<path class="st0" d="M211.07,37.32c-1.37-0.76-2.42-1.85-3.16-3.26c-0.74-1.41-1.11-3.05-1.11-4.92c0-1.87,0.39-3.53,1.17-4.98
				c0.78-1.44,1.87-2.56,3.28-3.35c1.41-0.79,3.02-1.18,4.85-1.18c0.96,0,1.93,0.14,2.91,0.41c0.97,0.27,1.83,0.64,2.57,1.11
				c0.79,0.52,1.18,1.17,1.18,1.96c0,0.54-0.13,0.98-0.39,1.31s-0.6,0.5-1.02,0.5c-0.27,0-0.55-0.06-0.85-0.18
				c-0.3-0.12-0.59-0.27-0.89-0.44c-0.54-0.32-1.06-0.57-1.55-0.76c-0.49-0.18-1.06-0.28-1.7-0.28c-1.53,0-2.71,0.5-3.53,1.5
				s-1.24,2.44-1.24,4.31c0,1.85,0.41,3.27,1.24,4.27s2,1.5,3.53,1.5c0.62,0,1.17-0.09,1.65-0.28c0.48-0.19,1.02-0.44,1.61-0.76
				c0.37-0.22,0.69-0.39,0.96-0.5c0.27-0.11,0.54-0.17,0.81-0.17c0.39,0,0.73,0.17,1,0.52s0.41,0.78,0.41,1.29
				c0,0.42-0.09,0.78-0.28,1.09c-0.18,0.31-0.49,0.59-0.91,0.83c-0.76,0.49-1.65,0.88-2.66,1.17s-2.05,0.43-3.11,0.43
				C214.02,38.47,212.44,38.09,211.07,37.32z"/>
		</g>
		<g>
			<path class="st0" d="M229.16,37.32c-1.39-0.76-2.47-1.86-3.24-3.29c-0.77-1.43-1.15-3.1-1.15-5s0.38-3.56,1.15-4.98
				c0.76-1.42,1.84-2.51,3.24-3.27s3.02-1.15,4.87-1.15c1.85,0,3.47,0.38,4.87,1.15s2.47,1.86,3.22,3.27
				c0.75,1.42,1.13,3.08,1.13,4.98s-0.38,3.56-1.13,5c-0.75,1.43-1.83,2.53-3.22,3.29s-3.02,1.15-4.87,1.15
				C232.18,38.47,230.55,38.09,229.16,37.32z M237.43,33.4c0.79-0.99,1.18-2.44,1.18-4.37c0-1.9-0.4-3.35-1.18-4.35
				s-1.92-1.5-3.4-1.5c-1.48,0-2.62,0.5-3.42,1.5c-0.8,1-1.2,2.45-1.2,4.35c0,1.92,0.39,3.38,1.18,4.37
				c0.79,0.99,1.92,1.48,3.4,1.48C235.49,34.88,236.64,34.39,237.43,33.4z"/>
		</g>
	</g>
	<path class="st0" d="M60.35,4.66L60.35,4.66c-2.98,0-5.54,1.7-6.79,4.19L43.35,28.58c-1.14-2.03-2.96-3.62-5.15-4.48
		c2.45-1.77,4.04-4.66,4.04-7.91c0-3.77-2.14-7.04-5.28-8.66c-2.76-1.45-5.91-2.27-9.25-2.27H12.44c-3.14,0-5.68,2.54-5.68,5.67
		v28.42c0,3.13,2.54,5.67,5.68,5.67h5.51h11c3.18,0,6.21-0.66,8.96-1.84l1.05-0.51c0.06-0.03,0.12-0.06,0.17-0.09
		c0.99,1.64,2.79,2.75,4.86,2.75c2.3,0,4.28-1.36,5.17-3.33c0.44-1.04,1.45-1.78,2.63-1.83h17.11c1.19,0.05,2.19,0.79,2.63,1.83
		c0.89,1.97,2.87,3.33,5.17,3.33c3.14,0,5.67-2.54,5.67-5.67c0-1.02-0.26-1.97-0.73-2.79L67.15,8.85
		C65.89,6.36,63.33,4.66,60.35,4.66L60.35,4.66z"/>
	<g>
		<defs>
			<path id="SVGID_1_" d="M60.35,4.66L60.35,4.66c-2.98,0-5.54,1.7-6.79,4.19L43.35,28.58c-1.14-2.03-2.96-3.62-5.15-4.48
				c2.45-1.77,4.04-4.66,4.04-7.91c0-3.77-2.14-7.04-5.28-8.66c-2.76-1.45-5.91-2.27-9.25-2.27H12.44c-3.14,0-5.68,2.54-5.68,5.67
				v28.42c0,3.13,2.54,5.67,5.68,5.67h5.51h11c3.18,0,6.21-0.66,8.96-1.84l1.05-0.51c0.06-0.03,0.12-0.06,0.17-0.09
				c0.99,1.64,2.79,2.75,4.86,2.75c2.3,0,4.28-1.36,5.17-3.33c0.44-1.04,1.45-1.78,2.63-1.83h17.11c1.19,0.05,2.19,0.79,2.63,1.83
				c0.89,1.97,2.87,3.33,5.17,3.33c3.14,0,5.67-2.54,5.67-5.67c0-1.02-0.26-1.97-0.73-2.79L67.15,8.85
				C65.89,6.36,63.33,4.66,60.35,4.66L60.35,4.66z"/>
		</defs>
		<clipPath id="SVGID_2_">
			<use xlink:href="#SVGID_1_"  style="overflow:visible;"/>
		</clipPath>
		<g class="st1">
			<g>
				<defs>
					<rect id="SVGID_3_" x="6.63" y="4.66" width="76" height="40.75"/>
				</defs>
				<clipPath id="SVGID_4_">
					<use xlink:href="#SVGID_3_"  style="overflow:visible;"/>
				</clipPath>
				<rect x="6.76" y="4.66" class="st2" width="75.62" height="40.68"/>
			</g>
		</g>
	</g>
</g>
</svg>
