<svg width="82" height="45" viewBox="0 0 82 45" fill="none" xmlns="http://www.w3.org/2000/svg">
<g clip-path="url(#clip0_14454_1433)">
<path d="M81.0559 35.2313L65.386 4.95253C64.0343 2.2647 61.2651 0.425049 58.0506 0.425049H58.0428C54.8322 0.425049 52.0591 2.2647 50.7075 4.95253L39.6773 26.2654C38.4457 24.0733 36.4821 22.3537 34.1119 21.4242C36.7571 19.511 38.4805 16.3932 38.4805 12.8766C38.4805 8.79838 36.1645 5.27012 32.7796 3.51954C29.7974 1.95099 26.393 1.06409 22.7835 1.06409H6.28466C2.89195 1.06409 0.149902 3.80614 0.149902 7.1911V37.8959C0.149902 41.2809 2.89195 44.0229 6.28466 44.0229H24.1274C27.5666 44.0229 30.8392 43.3103 33.8098 42.04L34.9407 41.4939C35.0026 41.4629 35.0646 41.4319 35.1266 41.4009C36.1994 43.1786 38.1397 44.3754 40.3744 44.3754C42.857 44.3754 44.9949 42.9036 45.9592 40.7774C46.4395 39.6542 47.5239 38.8603 48.802 38.7983H67.2876C68.5695 38.8603 69.6501 39.6542 70.1303 40.7774C71.0908 42.9036 73.2326 44.3754 75.7151 44.3754C79.104 44.3754 81.846 41.6256 81.846 38.2522C81.846 37.1523 81.5633 36.1221 81.0521 35.2352" fill="#FFD305"/>
</g>
<defs>
<clipPath id="clip0_14454_1433">
<rect width="81.7" height="43.9464" fill="white" transform="translate(0.149902 0.425049)"/>
</clipPath>
</defs>
</svg>
