<svg width="76" height="42" viewBox="0 0 76 42" fill="none" xmlns="http://www.w3.org/2000/svg">
<g clip-path="url(#clip0_1385_16043)">
<path d="M75.2614 32.9377L60.6847 4.77141C59.4274 2.2711 56.8514 0.559799 53.8611 0.559799H53.8539C50.8672 0.559799 48.2876 2.2711 47.0303 4.77141L36.7697 24.5973C35.624 22.5582 33.7974 20.9586 31.5925 20.0939C34.0532 18.3141 35.6564 15.4139 35.6564 12.1426C35.6564 8.34894 33.502 5.06684 30.3532 3.4384C27.579 1.97928 24.4122 1.15425 21.0545 1.15425H5.70676C2.55075 1.15425 0 3.705 0 6.8538V35.4164C0 38.5652 2.55075 41.1159 5.70676 41.1159H22.3046C25.5039 41.1159 28.5482 40.453 31.3115 39.2713L32.3635 38.7634C32.4211 38.7345 32.4788 38.7057 32.5364 38.6769C33.5344 40.3306 35.3394 41.4438 37.4182 41.4438C39.7275 41.4438 41.7162 40.0748 42.6133 38.0968C43.0601 37.052 44.0688 36.3135 45.2577 36.2558H62.4537C63.6462 36.3135 64.6513 37.052 65.0981 38.0968C65.9916 40.0748 67.9839 41.4438 70.2932 41.4438C73.4456 41.4438 75.9964 38.8858 75.9964 35.7479C75.9964 34.7247 75.7334 33.7663 75.2578 32.9413" fill="#FFD305"/>
</g>
<defs>
<clipPath id="clip0_1385_16043">
<rect width="76" height="40.8804" fill="white" transform="translate(0 0.559799)"/>
</clipPath>
</defs>
</svg>
