<svg width="76" height="41" viewBox="0 0 76 41" fill="none" xmlns="http://www.w3.org/2000/svg">
<g clip-path="url(#clip0_474_15983)">
<rect width="76" height="41" fill="white"/>
<g clip-path="url(#clip1_474_15983)">
<path d="M75.2614 32.3779L60.6847 4.21161C59.4274 1.71131 56.8514 0 53.8611 0H53.8539C50.8672 0 48.2876 1.71131 47.0303 4.21161L36.7697 24.0375C35.624 21.9984 33.7974 20.3988 31.5925 19.5341C34.0532 17.7543 35.6564 14.8541 35.6564 11.5828C35.6564 7.78914 33.502 4.50704 30.3532 2.8786C27.579 1.41948 24.4122 0.594454 21.0545 0.594454H5.70676C2.55075 0.594454 0 3.1452 0 6.294V34.8566C0 38.0054 2.55075 40.5561 5.70676 40.5561H22.3046C25.5039 40.5561 28.5482 39.8932 31.3115 38.7115L32.3635 38.2036C32.4211 38.1747 32.4788 38.1459 32.5364 38.1171C33.5344 39.7708 35.3394 40.884 37.4182 40.884C39.7275 40.884 41.7162 39.515 42.6133 37.537C43.0601 36.4922 44.0688 35.7537 45.2577 35.696H62.4537C63.6462 35.7537 64.6513 36.4922 65.0981 37.537C65.9916 39.515 67.9839 40.884 70.2932 40.884C73.4456 40.884 75.9964 38.326 75.9964 35.1881C75.9964 34.1649 75.7334 33.2065 75.2578 32.3815" fill="#FFD305"/>
</g>
</g>
<defs>
<clipPath id="clip0_474_15983">
<rect width="76" height="41" fill="white"/>
</clipPath>
<clipPath id="clip1_474_15983">
<rect width="76" height="40.8804" fill="white"/>
</clipPath>
</defs>
</svg>
