<svg xmlns="http://www.w3.org/2000/svg" width="101.747" height="48" viewBox="0 0 101.747 48">
  <g id="Grupo_20034" data-name="Grupo 20034" transform="translate(-15074.705 1901)">
    <g id="Grupo_20024" data-name="Grupo 20024" transform="translate(15125.631 -1897.208)">
      <path id="Trazado_27692" data-name="Trazado 27692" d="M9.728,12A2.716,2.716,0,0,0,8.263,9.443a2.5,2.5,0,0,0,1.048-2.1c0-1.788-1.079-2.9-3.222-2.9H1.157v10.7h5.21A3.04,3.04,0,0,0,9.728,12ZM6.09,6.3A1.131,1.131,0,0,1,7.339,7.47,1.183,1.183,0,0,1,6.09,8.657h-2.9V6.3Zm1.557,5.626c0,1.048-.771,1.356-1.557,1.356h-2.9V10.522H6.044C7.077,10.522,7.647,11.031,7.647,11.925Zm9.9-4.717H15.508v4.64A1.5,1.5,0,0,1,13.967,13.4a1.416,1.416,0,0,1-1.48-1.557V7.208H10.452v4.64c0,2.081,1.249,3.484,3.129,3.484a2.6,2.6,0,0,0,2.019-.909v.724h1.942Zm8.987,4.763c.293-3.145-1.649-4.963-3.992-4.963a4.163,4.163,0,0,0,0,8.324,3.762,3.762,0,0,0,3.838-2.713H24.2a1.844,1.844,0,0,1-1.68.925,2.02,2.02,0,0,1-1.988-1.572Zm-5.965-1.665A2.032,2.032,0,0,1,22.522,8.8a1.99,1.99,0,0,1,1.988,1.511Zm14.012.2c0-2.1-1.233-3.5-3.1-3.5a2.62,2.62,0,0,0-2.05.971V7.208H27.485v7.938H29.52v-4.64a1.506,1.506,0,0,1,1.541-1.572,1.412,1.412,0,0,1,1.48,1.572v4.64h2.035Zm4.871-3.5a4.047,4.047,0,0,0-3.992,4.177,4,4,0,1,0,8,0A4.059,4.059,0,0,0,39.447,7.008Zm0,6.459A2.075,2.075,0,0,1,37.489,11.2a1.987,1.987,0,1,1,3.915,0A2.075,2.075,0,0,1,39.447,13.467Zm11.638-.817c0-1.726-1.418-2.158-3.391-2.482-.987-.154-1.572-.293-1.572-.709,0-.293.385-.632,1.326-.632.755,0,1.2.293,1.326.663h2.112a3.21,3.21,0,0,0-3.437-2.482c-2.3,0-3.391,1.295-3.391,2.543,0,1.773,1.9,2.158,3.314,2.374,1.387.216,1.665.4,1.665.848,0,.462-.617.709-1.434.709a1.8,1.8,0,0,1-1.7-.925H43.84c.247,1.711,1.742,2.775,3.761,2.775C49.636,15.332,51.085,14.222,51.085,12.65Z" transform="translate(-0.263 -4.449)" fill="#fff"/>
      <path id="Trazado_27690" data-name="Trazado 27690" d="M7.261,13l.724,2.143h2.158l-3.73-10.7H3.839l-3.73,10.7H2.267L2.991,13Zm-.647-1.9H3.623l1.5-4.393ZM13.3,4.449H11.269v1.9H13.3Zm0,2.759H11.269v7.938H13.3Zm9,3.3c0-2.1-1.233-3.5-3.1-3.5a2.62,2.62,0,0,0-2.05.971V7.208H15.215v7.938h2.035v-4.64a1.506,1.506,0,0,1,1.541-1.572,1.412,1.412,0,0,1,1.48,1.572v.4h2.035Zm8.971,1.464c.293-3.145-1.649-4.963-3.992-4.963a4.163,4.163,0,0,0,0,8.324,3.762,3.762,0,0,0,3.838-2.713H28.949a1.844,1.844,0,0,1-1.68.925,2.02,2.02,0,0,1-1.988-1.572Zm-5.965-1.665A2.032,2.032,0,0,1,27.269,8.8a1.99,1.99,0,0,1,1.988,1.511ZM39.4,12.65c0-1.726-1.418-2.158-3.391-2.482-.987-.154-1.572-.293-1.572-.709,0-.293.385-.632,1.326-.632.755,0,1.2.293,1.326.663H39.2a3.21,3.21,0,0,0-3.437-2.482c-2.3,0-3.391,1.295-3.391,2.543,0,1.773,1.9,2.158,3.314,2.374,1.387.216,1.665.4,1.665.848,0,.462-.617.709-1.434.709a1.8,1.8,0,0,1-1.7-.925H32.155c.247,1.711,1.742,2.775,3.761,2.775C37.951,15.332,39.4,14.222,39.4,12.65Z" transform="translate(-0.109 10.127)" fill="#fff"/>
      <path id="Trazado_27691" data-name="Trazado 27691" d="M10.632,11.622H8.443a2.991,2.991,0,0,1-2.667,1.726c-1.757,0-3.145-1.7-3.145-3.73A3.472,3.472,0,0,1,5.776,5.9,2.946,2.946,0,0,1,8.443,7.6h2.2A4.853,4.853,0,0,0,5.776,4.038,5.328,5.328,0,0,0,.6,9.618,5.328,5.328,0,0,0,5.776,15.2,4.915,4.915,0,0,0,10.632,11.622Zm2.913-7.306H11.51v1.9h2.035Zm0,2.759H11.51v7.938h2.035Zm8.4,0H19.911v4.64a1.5,1.5,0,0,1-1.541,1.557,1.416,1.416,0,0,1-1.48-1.557V7.075H14.855v4.64c0,2.081,1.249,3.484,3.129,3.484A2.6,2.6,0,0,0,20,14.289v.724h1.942Zm9.079-3.53H28.99V7.83a3.336,3.336,0,0,0-2.343-.925,3.945,3.945,0,0,0-3.777,4.146,3.94,3.94,0,0,0,3.777,4.131,3.325,3.325,0,0,0,2.435-1.017v.848h1.942ZM28.99,11.067a2.044,2.044,0,1,1-4.069,0,2.048,2.048,0,1,1,4.069,0ZM40.15,7.075H38.208v.848a3.3,3.3,0,0,0-2.435-1.017A3.945,3.945,0,0,0,32,11.052a3.94,3.94,0,0,0,3.777,4.131,3.3,3.3,0,0,0,2.435-1.017v.848H40.15Zm-2.035,3.992a2.044,2.044,0,1,1-4.069,0,2.048,2.048,0,1,1,4.069,0ZM49.26,3.545H47.225V7.83a3.336,3.336,0,0,0-2.343-.925,3.945,3.945,0,0,0-3.777,4.146,3.94,3.94,0,0,0,3.777,4.131,3.325,3.325,0,0,0,2.435-1.017v.848H49.26Zm-2.035,7.522a2.044,2.044,0,1,1-4.069,0,2.048,2.048,0,1,1,4.069,0Z" transform="translate(-0.181 24.837)" fill="#fff"/>
    </g>
    <g id="Grupo_20021" data-name="Grupo 20021" transform="translate(15074.705 -1901)">
      <path id="Trazado_27684" data-name="Trazado 27684" d="M597.8,683.047a.229.229,0,1,0,0,.455.228.228,0,1,0,0-.455" transform="translate(-575.847 -675.29)" fill="#fff"/>
      <path id="Trazado_27685" data-name="Trazado 27685" d="M611.4,686.641h-.038a13.3,13.3,0,0,1-3.805-.894c-.5-.166-1-.341-1.511-.485a11.967,11.967,0,0,0-2.73-.479c-.218-.006-.422-.015-.639-.015a2.857,2.857,0,0,0-1.845.482,11.791,11.791,0,0,0-.566-1.786,2.269,2.269,0,0,0-1.291-1.417,1.122,1.122,0,0,0-.333-.045,1.942,1.942,0,0,0-1.411.854l-.113.146c-.291.376-.432.562-.391.74s.284.312.824.591c.235.118.277.427.308.652v.027a6.235,6.235,0,0,1,.072.983,5.88,5.88,0,0,0-3-1.166,5.419,5.419,0,0,0-.885-.077,9.232,9.232,0,0,0-3.2.717c-.446.176-.9.37-1.327.558a20.477,20.477,0,0,1-2.591.978,7.834,7.834,0,0,1-.92.192h-.019a.03.03,0,0,1-.018.005l-.026,0c-.14.022-.366.093-.416.278s-.013.311.268.511a5.294,5.294,0,0,0,2.431.5c.2,0,.407-.005.632-.021.293-.013.591-.048.9-.085a11.8,11.8,0,0,1,1.354-.1,4.343,4.343,0,0,1,.82.072,2.7,2.7,0,0,1,1.534,1.375c.1.145.185.281.277.4l.011.012a1.841,1.841,0,0,1,.448.936c-.013.293-.462.533-.785.71-.084.05-.172.094-.233.129-.1.068-.227.137-.348.214-.728.415-1.73.985-1.611,1.755a.906.906,0,0,0,.833.728.576.576,0,0,0,.117.007,2.045,2.045,0,0,0,.836-.246,3.481,3.481,0,0,1,.336-.148,3.092,3.092,0,0,1,1.043-.191,2.937,2.937,0,0,1,1.681.532,4.991,4.991,0,0,1,.477.389,3.689,3.689,0,0,0,.522.422,1.354,1.354,0,0,0,.674.2.405.405,0,0,0,.444-.3,5.53,5.53,0,0,0,.079-1.169,6.008,6.008,0,0,1,.035-.932c.028-.187.087-.564.355-.683a.756.756,0,0,1,.314-.055,3.552,3.552,0,0,1,.421.039,1.952,1.952,0,0,0,.558.033,2.143,2.143,0,0,0,1.713-1.519.837.837,0,0,1,.641-.487,1.627,1.627,0,0,0,.865-.644c.057-.068.12-.137.177-.2a2.4,2.4,0,0,1,1.909-.746c.148,0,.316.005.5.02.165.015.34.034.506.054a13.012,13.012,0,0,0,1.3.089,4.353,4.353,0,0,0,1.267-.169,9.027,9.027,0,0,0,2.686-1.47l.117-.083c.229-.174.284-.282.22-.474s-.342-.243-.452-.255m-17.233,2.676a5.971,5.971,0,0,0-.652-.867,3.107,3.107,0,0,0-2.508-.923c-.477,0-.99.052-1.483.1s-.982.094-1.461.094a5.816,5.816,0,0,1-.683-.038,21.419,21.419,0,0,0,2.4-.931,19.526,19.526,0,0,1,2.588-.976,6.2,6.2,0,0,1,1.722-.237,5.6,5.6,0,0,1,2.872.738c.671.4.867.821.641,1.416a5.451,5.451,0,0,1-1.245,1.845c-.042.037-.083.086-.131.135-.251.275-.676.726-1.036.726a.39.39,0,0,1-.292-.127,5.876,5.876,0,0,1-.737-.954m6.764.884a2.029,2.029,0,0,1-.672,1.268,1.625,1.625,0,0,1-1.122.313H598.9c-.085,0-.168-.005-.262-.005a1.053,1.053,0,0,0-.722.258c-.556.508-.546,1.617-.54,2.351v.239l-.053-.049a4.532,4.532,0,0,0-2.348-1.272,2.807,2.807,0,0,0-.475-.034,4.337,4.337,0,0,0-.939.106,3.944,3.944,0,0,0-.772.262c-.1.035-.19.079-.292.118a1.354,1.354,0,0,1-.376.087.117.117,0,0,1-.061-.013.059.059,0,0,1,0-.05c.09-.3.456-.515.743-.688l.075-.045c.733-.447,1.424-.9,2.1-1.371a9.376,9.376,0,0,0,3.3-3.432,5.577,5.577,0,0,0,.474-2.759v-.057a3.132,3.132,0,0,0-.239-1.18,1.373,1.373,0,0,0-.689-.6l-.157-.084c.133-.219.5-.8.916-.8a.627.627,0,0,1,.469.268,5.711,5.711,0,0,1,.92,1.988c.033.109.072.231.105.36a12.607,12.607,0,0,1,.844,4.815m8.509-2.365a4.075,4.075,0,0,1-1.863.513h-.052c-.373-.01-.756-.054-1.125-.1-.316-.035-.641-.072-.96-.09a3.661,3.661,0,0,0-1.911.351,3.054,3.054,0,0,0-.817.706,3.836,3.836,0,0,1-.556.532.386.386,0,0,1-.218.1h0c-.094,0-.1-.057-.094-.174V689.6a7.427,7.427,0,0,0-.1-.8l-.026-.146a13.555,13.555,0,0,0-.268-1.4,1.67,1.67,0,0,0-.092-.283c-.142-.412-.323-.928.035-1.19a1.67,1.67,0,0,1,.835-.21s.273-.024.576-.026h.115a8.392,8.392,0,0,1,1.016.06,12.26,12.26,0,0,1,2.1.462c.433.128.859.274,1.284.414a18.545,18.545,0,0,0,3.021.824,9.985,9.985,0,0,1-.9.531" transform="translate(-576.63 -675.358)" fill="#fff"/>
      <path id="Trazado_27686" data-name="Trazado 27686" d="M620.784,695.207a25.145,25.145,0,0,0-1.361-4.881,24.831,24.831,0,0,0-2.25-4.389,24.008,24.008,0,0,0-2.368-3.081,22.341,22.341,0,0,0-3.81-3.343,21.136,21.136,0,0,0-4.455-2.377,20.894,20.894,0,0,0-4.972-1.232,20.475,20.475,0,0,0-10.177,1.4,21.679,21.679,0,0,0-4.4,2.47,22.4,22.4,0,0,0-3.72,3.406,24.2,24.2,0,0,0-2.811,3.951,24.736,24.736,0,0,0-2,4.537,25.511,25.511,0,0,0-1.1,5,26.35,26.35,0,0,0,.84,10.369,25.771,25.771,0,0,0,1.864,4.622,24.192,24.192,0,0,0,2.678,4.063,43.13,43.13,0,0,0,4.144,3.95,20.67,20.67,0,0,0,12.3,4.091h.006a20.29,20.29,0,0,0,5.148-.659,20.941,20.941,0,0,0,4.71-1.875,22.087,22.087,0,0,0,4.124-2.926,23.514,23.514,0,0,0,3.293-3.674,24.1,24.1,0,0,0,2.459-4.234,25.25,25.25,0,0,0,1.6-4.763,26.017,26.017,0,0,0,.262-10.426m-38.956,11.471h-.56l.5-1.716c.047-.129.074-.121.09-.069-.007.619-.02,1.217-.033,1.785M582.1,702l-1.13-.469c-.061-.022-.054-.044.015-.044h2.417c.07,0,.072.021.009.044l-1.083.469a.344.344,0,0,1-.227,0m-1.413-.958,1.262-.805c-.006.264-.015.531-.019.805Zm.419-2.72h2.159c.057,0,.063.019.011.044l-.964.406a.357.357,0,0,1-.211.006l-1-.416c-.054-.024-.05-.039.009-.039m-.268-.4,1.162-.686c0,.212-.006.447-.017.686Zm1.572-.674,1.143.674h-1.135c0-.231-.007-.454-.007-.674m.051,2.988,1.268.8h-1.256c-.006-.269-.013-.541-.013-.8m.115,6.436c-.008-.568-.026-1.166-.035-1.78.01-.045.042-.075.085.046l.51,1.734Zm16.6,15.351a18.391,18.391,0,0,1-9.31-2.533,46.546,46.546,0,0,1,6.443.531c2.143.286,4.287.61,6.441.805.826.075,1.664.131,2.492.163a18.166,18.166,0,0,1-6.067,1.034m9.837-2.851a33.285,33.285,0,0,1-6.391-.1c-2.122-.2-4.23-.53-6.337-.8a49.222,49.222,0,0,0-6.562-.511c-.748.01-1.5.038-2.234.105a22.028,22.028,0,0,1-2-1.81,33.989,33.989,0,0,1,6.673-.14c2.229.146,4.442.439,6.651.728,1.114.152,2.22.3,3.327.432.557.064,2.756.219,3.3.216a46.375,46.375,0,0,0,6.642-.471,20.408,20.408,0,0,1-3.065,2.355m5.053-4.478a39.714,39.714,0,0,1-6.495.809c-1.094.052-2.189.077-3.284.026s-2.2-.206-3.3-.35c-2.2-.282-4.4-.6-6.615-.822a46.6,46.6,0,0,0-6.645-.243,28.719,28.719,0,0,0-3.6.385q-.612-.762-1.156-1.592a39.514,39.514,0,0,1,5.942-.659,41.376,41.376,0,0,1,6.046.291c1.938.228,3.86.554,5.8.788a44.612,44.612,0,0,0,5.342.354h.012a37.529,37.529,0,0,0,5.545-.415q2.011-.292,3.978-.748a22.573,22.573,0,0,1-1.568,2.177m-29.544-6.125a1.832,1.832,0,0,1-1-1.622l2.867-6.081c.061-.111.089-.073.075,0Zm1.9-5.743c-.044,2.731-.085,5.266-.1,6.481a5.115,5.115,0,0,1-1.486-.563l1.52-6.034c.039-.059.06.03.066.116m-.759-5.331h2.157c.054,0,.062.022.006.045l-.97.414a.281.281,0,0,1-.2,0l-1.007-.417c-.056-.022-.056-.045.013-.045m-.268-.392,1.136-.676c-.01.217-.01.446-.01.676Zm1.588-.665,1.12.665H587c0-.228-.008-.452-.008-.665m2.3,8.927c-.042,1.309-.077,2.609-.1,3.62a.056.056,0,0,1-.035.017l-.955-3.758.506-1.1Zm-.39-1.634.383-.815c.039-.054.063-.034.073.005-.013.527-.032,1.088-.047,1.666Zm-.951,2.029.927,3.418a4.962,4.962,0,0,1-1.083.232c-.125.014-.247.021-.376.031a1.383,1.383,0,0,1-.231.007c0-.459-.017-1.154-.026-2.009Zm-.8.874c-.015-1.131-.034-2.456-.061-3.825.013-.111.042-.193.1-.029l.624,2.432Zm.907-1.928-.985-3.839c-.012-.075.009-.114.074,0l1.368,2.867Zm1.884,1.2v-.559c-.031-1-.059-1.461-.079-2.389.006-.065.027-.107.083-.032l1.709,3.842a3.275,3.275,0,0,1-.765,1.091Zm.672,2.2a4.541,4.541,0,0,1-.6.486c-.016-.523-.039-1.2-.054-1.814Zm1.74-1.472,1.957-3.782c-.033,1.086-.075,2.639-.111,3.782h-.8c-.292,0-.758.017-1.046,0m14.014-4.844H609.2c.076,0,.087.018.037.045-.01.008-1.292.549-1.292.549a.354.354,0,0,1-.263.007l-1.324-.548c-.079-.032-.07-.052.013-.052m-.325-.508,1.478-.953c0,.281-.011.92-.011.953Zm.537-3.751a.253.253,0,0,1,.05-.01h2.361c.024,0,.035,0,.042.01h0c.017.005.011.02-.031.037l-1.06.445a.359.359,0,0,1-.222.006l-1.1-.452c-.039-.017-.05-.032-.039-.037m-.254-.458,1.261-.815c-.006.264-.006.535-.011.815Zm1.7-.8,1.272.8h-1.249c-.006-.271-.01-.541-.022-.8m.066,4.057,1.476.953h-1.453c-.011-.312-.017-.642-.023-.953m4.283-1.02h2.42c.068,0,.079.015.012.045l-1.086.468a.354.354,0,0,1-.225,0l-1.129-.468c-.064-.03-.06-.045.009-.045m-.3-.446,1.27-.812c-.006.274-.009.536-.012.812Zm1.764-.807,1.285.807h-1.269c0-.27-.008-.538-.016-.807m-.549,4.681c-.046,2.634-.1,5.468-.127,7.456a4.922,4.922,0,0,1-1.869.24l1.2-4.834.707-2.849c.034-.065.069-.1.087-.013m-.17-1.131-2.1,8.377-.914-2.252.008-.014,2.871-6.2c.079-.121.166-.206.131.088m-2.321,8.755a3.705,3.705,0,0,1-1.576-.731l.683-1.469Zm-1.84-.965a4.194,4.194,0,0,1-.732-.931c-.014-1.269-.047-3.165-.083-5.192l1.6,4.424Zm-3.458-1.02h-3.469l5.163-5.239Zm1.978-5.1c-.021,1.18-.069,4.962-.069,5.1h-1.544Zm6.433-.538c-.006-.085.046-.06.079.017l1.443,5.626a3.617,3.617,0,0,1-1.418,1.429c-.013-1.019-.1-7.051-.1-7.072m1.893,5.609-1.768-6.67c-.052-.406.059-.262.152-.109l3.236,6.779Zm2.887-3.254a24.665,24.665,0,0,1-.929,3.143l-3.872-8.269,1.7-.684a.208.208,0,0,0,0-.388s-1.667-1.068-1.763-1.126l-.038-2.538c.2-.025.4-.108.6-.139a2.379,2.379,0,0,1,.658.044,1.576,1.576,0,0,0,.6-.005,1.423,1.423,0,0,0,.5-.249,3.352,3.352,0,0,1-1.184-.42,2.133,2.133,0,0,0-.625-.153,2.009,2.009,0,0,0-.664.022c-.026-.146-.046-.3-.073-.464h-.09a12.477,12.477,0,0,0-.135,2.156c0,.491-.008.988-.016,1.484,0,.086,0,.172-.008.264l-1.749,1.124a.208.208,0,0,0,0,.386v0l1.649.684-3.331,7.3-1.719-4.7,1.9-.8a.244.244,0,0,0,.011-.447s-1.8-1.13-2.03-1.281c-.008-.592-.022-1.234-.029-1.793l1.738-.738v0a.211.211,0,0,0,.008-.39s-1.557-.995-1.788-1.141c-.015-1.156-.021-2.3-.042-3.449a1.6,1.6,0,0,0,.3-.055c.111-.03.215-.062.329-.081a2.131,2.131,0,0,1,.658.03,1.527,1.527,0,0,0,.633,0,1.488,1.488,0,0,0,.5-.249,3.356,3.356,0,0,1-1.186-.417,2.242,2.242,0,0,0-.624-.153,1.9,1.9,0,0,0-.665.022c-.017-.146-.042-.3-.075-.471h-.082v.006a10.358,10.358,0,0,0-.136,1.919c-.007.587-.007,1.172-.019,1.755-.008.382-.015.767-.023,1.143l-1.765,1.135a.214.214,0,0,0,0,.4l1.73.734c0,.557-.013,1.212-.02,1.8l-2.023,1.275a.24.24,0,0,0,0,.448l1.86.805-5.823,5.816c-.111,0-.837.007-.937.127a.313.313,0,0,0-.092.416.926.926,0,0,0,.456.421,2.093,2.093,0,0,0,.31.137.064.064,0,0,1,.034.026,4.179,4.179,0,0,0,2.772,2.3h-.01s.06.019.047.061a.068.068,0,0,1-.012.018.3.3,0,0,1-.059.015c-2.146-.118-4.259-.437-6.374-.732-.811-.12-1.618-.229-2.428-.326-.55-.061-1.095-.123-1.64-.209-.052-.02-.079-.033-.089-.052v0c-.006,0-.006-.009-.006-.009v-.011l.006,0c0-.015.015-.024.027-.037a.094.094,0,0,1,.019-.011c2.979-.8,3.6-2.752,3.6-2.752.039-.018.077-.037.11-.056a1.676,1.676,0,0,0,.237-.1.968.968,0,0,0,.456-.42.319.319,0,0,0-.089-.415c-.112-.133-.955-.128-.955-.128l-.006,0h-.144c-.006-.414-.015-1.5-.046-2.2a.517.517,0,0,0,.279-.013,3.121,3.121,0,0,1,.336-.084,1.754,1.754,0,0,1,.683,0,1.84,1.84,0,0,0,.67.015,1.365,1.365,0,0,0,.531-.257,3.646,3.646,0,0,1-1.212-.432,2.26,2.26,0,0,0-.653-.145,1.506,1.506,0,0,0-.68.053c-.018-.17-.031-.313-.05-.422h-.085a34.121,34.121,0,0,0-.12,3.486l-1.5.005c-.046-1.467-.118-3.426-.158-4.681l1.3-2.5c.177.067.378.081.561.143a1.652,1.652,0,0,1,.534.292,1.727,1.727,0,0,0,.508.291,1.583,1.583,0,0,0,.647.016,2.657,2.657,0,0,1-.777-.867,1.982,1.982,0,0,0-.452-.406,1.829,1.829,0,0,0-.611-.291,1.957,1.957,0,0,0,.122-.412.066.066,0,0,0-.035-.056.056.056,0,0,1-.021-.005c-.066.01-.079.037-.116.082a3.416,3.416,0,0,0-.3.418l-1.378,2.67c-.017-.421-.024-.842-.033-1.262a8.42,8.42,0,0,0-.125-1.578h-.086a11.02,11.02,0,0,0-.133,1.919c-.009.575-.029,1.158-.048,1.735l-2.379,4.435-2.13-4.7c-.018-.585-.035-1.161-.044-1.749a11.032,11.032,0,0,0-.137-1.975h-.079a11.79,11.79,0,0,0-.142,1.945c0,.591-.02,1.186-.033,1.773l-.687,1.454-1.666-3.5c-.013-.583-.019-1.153-.029-1.708l1.521-.644a.184.184,0,0,0,0-.341s-1.282-.834-1.553-1c-.016-1.2-.029-2.407-.05-3.609a1.343,1.343,0,0,0,.286-.055,3.2,3.2,0,0,1,.333-.081,2.137,2.137,0,0,1,.66.03,1.527,1.527,0,0,0,.633,0,1.56,1.56,0,0,0,.5-.249,3.137,3.137,0,0,1-1.16-.412,2.132,2.132,0,0,0-.62-.155,1.821,1.821,0,0,0-.691.019c-.017-.158-.039-.316-.065-.474h-.085a12.724,12.724,0,0,0-.142,2.321c-.008.751-.023,1.5-.033,2.249,0,.141,0,.279-.009.417l-1.551,1a.186.186,0,0,0,0,.346l1.52.644c-.013.624-.028,1.639-.028,1.708l-3.092,6.535-.454-1.5h.6a.861.861,0,0,0,.257-.058c.058-.014.2-.059.2-.133s-.122-.109-.175-.128a.966.966,0,0,0-.279-.055h-.707l-.307-1.037c-.006-.422-.014-.856-.025-1.272l1.707-.719a.21.21,0,0,0,.008-.388s-1.639-1.042-1.757-1.111c0-.308-.006-.73-.017-1.012l1.539-.652a.188.188,0,0,0,.005-.346s-1.366-.881-1.58-1.016c-.013-1.008-.021-1.677-.028-1.753a2.3,2.3,0,0,0,.542-.109,1.818,1.818,0,0,1,.574.013,1.43,1.43,0,0,0,.558.017,1.345,1.345,0,0,0,.477-.228,2.942,2.942,0,0,1-1.05-.375,1.855,1.855,0,0,0-.559-.129,1.415,1.415,0,0,0-.593.03c-.021-.137-.044-.272-.078-.419h-.083a8.312,8.312,0,0,0-.127,1.665c-.008.481-.017.812-.031,1.289l-1.572,1.012a.189.189,0,0,0,0,.35l1.538.652c0,.284-.008.706-.016,1.012l-1.731,1.107a.208.208,0,0,0,0,.388l1.689.723c0,.415-.017.845-.026,1.26l-.3,1.049h-.708a.9.9,0,0,0-.264.047c-.057.019-.2.064-.2.135s.125.109.179.127a.871.871,0,0,0,.281.064h.6l-.529,1.817h-.853a23.569,23.569,0,0,1-.943-5.358,24.528,24.528,0,0,1,.251-5.429,23.729,23.729,0,0,1,1.32-4.9,22.71,22.71,0,0,1,2.239-4.345,21.136,21.136,0,0,1,1.568-2.1,12.589,12.589,0,0,0,5.308.061,18.247,18.247,0,0,1,5.353-.231l.523.081a4.686,4.686,0,0,1,.2-.79,17.444,17.444,0,0,0-6-.416,6.952,6.952,0,0,1-3.7-.5,18.557,18.557,0,0,1,2.207-1.8,7.732,7.732,0,0,0,2.994,1.008c.68.109,1.37.155,2.043.3a20.062,20.062,0,0,1,2.027.528c.233.076.544.21.686.272a3.8,3.8,0,0,1,.472-.7l-.437-.251a12.428,12.428,0,0,0-2.615-.931,11.419,11.419,0,0,1-1.781-.623,5.453,5.453,0,0,1-1.311-.869,18.18,18.18,0,0,1,2.608-1.162,12.785,12.785,0,0,0,2.407,1.735,8.187,8.187,0,0,1,1.651,1.633,3.421,3.421,0,0,1,.791-.391,7.673,7.673,0,0,0-1.727-2.37,2.99,2.99,0,0,1-.953-1.22,17.523,17.523,0,0,1,2.973-.4l.486,3.827a2.962,2.962,0,0,1,.45-.028,3.647,3.647,0,0,1,.451.028l.486-3.821a18.718,18.718,0,0,1,2.071.214c.513.094.905.183.905.183a3.153,3.153,0,0,1-.941,1.22,7.465,7.465,0,0,0-1.717,2.377,3.143,3.143,0,0,1,.785.39,8.61,8.61,0,0,1,1.647-1.639,14,14,0,0,0,2.39-1.735,18.23,18.23,0,0,1,1.849.757l.776.4a14.57,14.57,0,0,1-1.314.871,9.023,9.023,0,0,1-1.78.623,12.576,12.576,0,0,0-2.617.931l-.439.244a3.531,3.531,0,0,1,.48.7c.159-.069.458-.2.68-.268a19.818,19.818,0,0,1,2.032-.528c.669-.141,1.358-.187,2.039-.3a7.893,7.893,0,0,0,2.988-1.008,22.923,22.923,0,0,1,2.2,1.806,7.062,7.062,0,0,1-3.694.49,17.543,17.543,0,0,0-5.993.407,3.592,3.592,0,0,1,.185.773l.559-.08a18.608,18.608,0,0,1,5.327.257,12.582,12.582,0,0,0,5.293-.054c.234.269.456.541.668.825a22.273,22.273,0,0,1,2.5,4.134,23.387,23.387,0,0,1,1.637,4.736,24.3,24.3,0,0,1,.619,5.194,24.8,24.8,0,0,1-.575,5.644" transform="translate(-577.173 -675.764)" fill="#fff"/>
    </g>
  </g>
</svg>
