<svg width="128" height="128" viewBox="0 0 128 128" fill="none" xmlns="http://www.w3.org/2000/svg">
<path fill-rule="evenodd" clip-rule="evenodd" d="M112.075 112.41H16.0498V111.491H112.075V112.41Z" fill="black"/>
<path d="M45.0493 69.4499C45.0493 65.8249 47.9993 62.8749 51.6243 62.8749H78.1993V47.0999C78.1993 43.4749 81.1493 40.5249 84.7743 40.5249H103.574C107.199 40.5249 110.149 43.4749 110.149 47.0999V110.25L45.0493 110.375V69.4499Z" fill="#FDD204"/>
<path d="M103.574 42.075C106.349 42.075 108.624 44.325 108.624 47.125V108.75L46.5994 108.875V103.85V69.45C46.5994 66.675 48.8494 64.4 51.6494 64.4H76.6994H79.7494V61.325V47.1C79.7494 44.325 81.9994 42.05 84.7994 42.05H103.574M103.574 39H84.7744C80.3244 39 76.6744 42.65 76.6744 47.1V61.325H51.6244C47.1744 61.325 43.5244 64.975 43.5244 69.425V103.8V111.9L111.674 111.775V47.125C111.674 42.65 108.024 39 103.574 39Z" fill="white"/>
<path d="M108.6 102.1H46.6245V112H108.6V102.1Z" fill="#FDD204"/>
<path fill-rule="evenodd" clip-rule="evenodd" d="M84.7746 39.4848C80.5785 39.4848 77.1343 42.929 77.1343 47.1251V61.8098H51.6246C47.4285 61.8098 43.9843 65.254 43.9843 69.4501V111.465L111.215 111.341V47.1251C111.215 42.929 107.771 39.4848 103.575 39.4848H84.7746ZM76.2149 47.1251C76.2149 42.4212 80.0707 38.5654 84.7746 38.5654H103.575C108.278 38.5654 112.134 42.4212 112.134 47.1251V112.259L43.0649 112.386V69.4501C43.0649 64.7462 46.9207 60.8904 51.6246 60.8904H76.2149V47.1251Z" fill="black"/>
<path d="M91.5747 61.8004C90.4747 61.8004 89.5747 60.9004 89.5747 59.8004V53.4004C89.5747 52.3004 90.4747 51.4004 91.5747 51.4004H97.4247C98.5247 51.4004 99.4247 52.3004 99.4247 53.4004V59.8004C99.4247 60.9004 98.5247 61.8004 97.4247 61.8004H91.5747Z" fill="white"/>
<path d="M97.4245 51.8752C98.2745 51.8752 98.9495 52.5502 98.9495 53.4002V59.8002C98.9495 60.6502 98.2745 61.3252 97.4245 61.3252H91.5745C90.7245 61.3252 90.0495 60.6502 90.0495 59.8002V53.4002C90.0495 52.5502 90.7245 51.8752 91.5745 51.8752H97.4245ZM97.4245 50.9502H91.5745C90.2245 50.9502 89.1245 52.0502 89.1245 53.4002V59.8002C89.1245 61.1502 90.2245 62.2502 91.5745 62.2502H97.4245C98.7745 62.2502 99.8745 61.1502 99.8745 59.8002V53.4002C99.8745 52.0502 98.7745 50.9502 97.4245 50.9502Z" fill="black"/>
<path d="M91.5747 82.8755C90.4747 82.8755 89.5747 81.9755 89.5747 80.8755V74.5005C89.5747 73.4005 90.4747 72.5005 91.5747 72.5005H97.4247C98.5247 72.5005 99.4247 73.4005 99.4247 74.5005V80.9005C99.4247 82.0005 98.5247 82.9005 97.4247 82.9005H91.5747V82.8755Z" fill="white"/>
<path d="M97.4245 72.9503C98.2745 72.9503 98.9495 73.6253 98.9495 74.4753V80.8753C98.9495 81.7253 98.2745 82.4003 97.4245 82.4003H91.5745C90.7245 82.4003 90.0495 81.7253 90.0495 80.8753V74.5003C90.0495 73.6503 90.7245 72.9753 91.5745 72.9753H97.4245M97.4245 72.0503H91.5745C90.2245 72.0503 89.1245 73.1503 89.1245 74.5003V80.9003C89.1245 82.2503 90.2245 83.3503 91.5745 83.3503H97.4245C98.7745 83.3503 99.8745 82.2503 99.8745 80.9003V74.5003C99.8745 73.1253 98.7745 72.0503 97.4245 72.0503Z" fill="black"/>
<path d="M75.1748 82.8755C74.0748 82.8755 73.1748 81.9755 73.1748 80.8755V74.5005C73.1748 73.4005 74.0748 72.5005 75.1748 72.5005H81.0248C82.1248 72.5005 83.0248 73.4005 83.0248 74.5005V80.9005C83.0248 82.0005 82.1248 82.9005 81.0248 82.9005H75.1748V82.8755Z" fill="white"/>
<path d="M81.0246 72.9503C81.8746 72.9503 82.5496 73.6253 82.5496 74.4753V80.8753C82.5496 81.7253 81.8746 82.4003 81.0246 82.4003H75.1746C74.3246 82.4003 73.6496 81.7253 73.6496 80.8753V74.5003C73.6496 73.6503 74.3246 72.9753 75.1746 72.9753H81.0246M81.0246 72.0503H75.1746C73.8246 72.0503 72.7246 73.1503 72.7246 74.5003V80.9003C72.7246 82.2503 73.8246 83.3503 75.1746 83.3503H81.0246C82.3746 83.3503 83.4746 82.2503 83.4746 80.9003V74.5003C83.4746 73.1253 82.3996 72.0503 81.0246 72.0503Z" fill="black"/>
<path d="M58.7998 82.8755C57.6998 82.8755 56.7998 81.9755 56.7998 80.8755V74.5005C56.7998 73.4005 57.6998 72.5005 58.7998 72.5005H64.6498C65.7498 72.5005 66.6498 73.4005 66.6498 74.5005V80.9005C66.6498 82.0005 65.7498 82.9005 64.6498 82.9005H58.7998V82.8755Z" fill="white"/>
<path d="M64.6496 72.9503C65.4996 72.9503 66.1746 73.6253 66.1746 74.4753V80.8753C66.1746 81.7253 65.4996 82.4003 64.6496 82.4003H58.7996C57.9496 82.4003 57.2746 81.7253 57.2746 80.8753V74.5003C57.2746 73.6503 57.9496 72.9753 58.7996 72.9753H64.6496M64.6496 72.0503H58.7996C57.4496 72.0503 56.3496 73.1503 56.3496 74.5003V80.9003C56.3496 82.2503 57.4496 83.3503 58.7996 83.3503H64.6496C65.9996 83.3503 67.0996 82.2503 67.0996 80.9003V74.5003C67.0996 73.1253 65.9996 72.0503 64.6496 72.0503Z" fill="black"/>
<path d="M75.1748 103.975C74.0748 103.975 73.1748 103.075 73.1748 101.975V95.5752C73.1748 94.4752 74.0748 93.5752 75.1748 93.5752H81.0248C82.1248 93.5752 83.0248 94.4752 83.0248 95.5752V101.975C83.0248 103.075 82.1248 103.975 81.0248 103.975H75.1748Z" fill="white"/>
<path d="M81.0246 94.05C81.8746 94.05 82.5496 94.725 82.5496 95.575V101.975C82.5496 102.825 81.8746 103.5 81.0246 103.5H75.1746C74.3246 103.5 73.6496 102.825 73.6496 101.975V95.575C73.6496 94.725 74.3246 94.05 75.1746 94.05H81.0246ZM81.0246 93.125H75.1746C73.8246 93.125 72.7246 94.225 72.7246 95.575V101.975C72.7246 103.325 73.8246 104.425 75.1746 104.425H81.0246C82.3746 104.425 83.4746 103.325 83.4746 101.975V95.575C83.4746 94.225 82.3996 93.125 81.0246 93.125Z" fill="black"/>
<path d="M58.7998 103.975C57.6998 103.975 56.7998 103.075 56.7998 101.975V95.5752C56.7998 94.4752 57.6998 93.5752 58.7998 93.5752H64.6498C65.7498 93.5752 66.6498 94.4752 66.6498 95.5752V101.975C66.6498 103.075 65.7498 103.975 64.6498 103.975H58.7998Z" fill="white"/>
<path d="M64.6496 94.05C65.4996 94.05 66.1746 94.725 66.1746 95.575V101.975C66.1746 102.825 65.4996 103.5 64.6496 103.5H58.7996C57.9496 103.5 57.2746 102.825 57.2746 101.975V95.575C57.2746 94.725 57.9496 94.05 58.7996 94.05H64.6496ZM64.6496 93.125H58.7996C57.4496 93.125 56.3496 94.225 56.3496 95.575V101.975C56.3496 103.325 57.4496 104.425 58.7996 104.425H64.6496C65.9996 104.425 67.0996 103.325 67.0996 101.975V95.575C67.0996 94.225 65.9996 93.125 64.6496 93.125Z" fill="black"/>
<path d="M91.5747 103.975C90.4747 103.975 89.5747 103.075 89.5747 101.975V95.5752C89.5747 94.4752 90.4747 93.5752 91.5747 93.5752H97.4247C98.5247 93.5752 99.4247 94.4752 99.4247 95.5752V101.975C99.4247 103.075 98.5247 103.975 97.4247 103.975H91.5747Z" fill="white"/>
<path d="M97.4245 94.05C98.2745 94.05 98.9495 94.725 98.9495 95.575V101.975C98.9495 102.825 98.2745 103.5 97.4245 103.5H91.5745C90.7245 103.5 90.0495 102.825 90.0495 101.975V95.575C90.0495 94.725 90.7245 94.05 91.5745 94.05H97.4245ZM97.4245 93.125H91.5745C90.2245 93.125 89.1245 94.225 89.1245 95.575V101.975C89.1245 103.325 90.2245 104.425 91.5745 104.425H97.4245C98.7745 104.425 99.8745 103.325 99.8745 101.975V95.575C99.8745 94.225 98.7745 93.125 97.4245 93.125Z" fill="black"/>
<path d="M34.8998 57.6253C45.1723 57.6253 53.4998 49.2978 53.4998 39.0253C53.4998 28.7528 45.1723 20.4253 34.8998 20.4253C24.6273 20.4253 16.2998 28.7528 16.2998 39.0253C16.2998 49.2978 24.6273 57.6253 34.8998 57.6253Z" fill="#FDD204"/>
<path d="M34.8997 21.1252C44.7747 21.1252 52.7997 29.1502 52.7997 39.0252C52.7997 48.9002 44.7747 56.9252 34.8997 56.9252C25.0247 56.9252 16.9997 48.8752 16.9997 39.0252C16.9997 29.1502 25.0247 21.1252 34.8997 21.1252ZM34.8997 20.2002C24.4997 20.2002 16.0747 28.6252 16.0747 39.0252C16.0747 49.4252 24.4997 57.8502 34.8997 57.8502C45.2997 57.8502 53.7247 49.4252 53.7247 39.0252C53.6997 28.6252 45.2747 20.2002 34.8997 20.2002Z" fill="black"/>
<path fill-rule="evenodd" clip-rule="evenodd" d="M34.8996 34.4404C35.1535 34.4404 35.3593 34.6462 35.3593 34.9001V111.7C35.3593 111.954 35.1535 112.16 34.8996 112.16C34.6457 112.16 34.4399 111.954 34.4399 111.7V34.9001C34.4399 34.6462 34.6457 34.4404 34.8996 34.4404Z" fill="black"/>
<path fill-rule="evenodd" clip-rule="evenodd" d="M27.7286 35.2711C27.9104 35.0939 28.2014 35.0976 28.3787 35.2794L35.1537 42.2294C35.3309 42.4112 35.3272 42.7022 35.1454 42.8794C34.9636 43.0566 34.6726 43.0529 34.4954 42.8711L27.7204 35.9211C27.5432 35.7394 27.5469 35.4483 27.7286 35.2711Z" fill="black"/>
<path fill-rule="evenodd" clip-rule="evenodd" d="M42.4093 38.3351C42.597 38.506 42.6106 38.7968 42.4397 38.9845L35.3147 46.8095C35.1438 46.9972 34.853 47.0108 34.6653 46.8399C34.4776 46.669 34.464 46.3782 34.6349 46.1905L41.7599 38.3655C41.9308 38.1778 42.2216 38.1642 42.4093 38.3351Z" fill="black"/>
</svg>
