<?xml version="1.0" encoding="utf-8"?>
<!-- Generator: Adobe Illustrator 25.0.1, SVG Export Plug-In . SVG Version: 6.00 Build 0)  -->
<svg version="1.1" id="Layer_1" xmlns="http://www.w3.org/2000/svg" xmlns:xlink="http://www.w3.org/1999/xlink" x="0px" y="0px"
	 viewBox="0 0 250 50" style="enable-background:new 0 0 250 50;" xml:space="preserve">
<style type="text/css">
	.st0{clip-path:url(#SVGID_2_);}
	.st1{fill:#B8C1CC;}
	.st2{fill:#E8E8E8;}
	.st3{fill:#8A98A8;}
	.st4{fill:#5C6A7A;}
	.st5{fill:#E6EBF0;}
	.st6{fill:#FFFFFF;}
	.st7{fill:#38485C;}
</style>
<g id="Capa_2">
	<g id="Capa_1-2">
		<g>
			<defs>
				<path id="SVGID_1_" d="M48.7,5.8v38.4c0,1.8-1.5,3.3-3.4,3.3H6.4C4.5,47.5,3,46,3,44.2V5.8C3,4,4.5,2.5,6.4,2.5h38.9
					C47.1,2.5,48.7,4,48.7,5.8z"/>
			</defs>
			<clipPath id="SVGID_2_">
				<use xlink:href="#SVGID_1_"  style="overflow:visible;"/>
			</clipPath>
			<g class="st0">
				<polygon class="st1" points="25.8,25.1 3,2.6 3,2.7 25.8,25.2 25.8,25.2 26,25.4 48.4,47.5 48.7,47.5 48.7,2.6 				"/>
				<polygon class="st2" points="25.8,25.2 25.8,25.2 26,25.4 				"/>
				<polygon class="st3" points="3.5,47.5 48.4,47.5 26,25.4 				"/>
				<polygon class="st4" points="25.8,25.2 3,2.7 3,47.5 3.5,47.5 26,25.4 				"/>
				<polygon class="st5" points="48.7,2.6 48.7,2.5 3,2.5 3,2.6 26,25.4 				"/>
			</g>
		</g>
		<path class="st6" d="M211.5,39.6c-1.7-0.9-3.1-2.3-4-4c-1-1.9-1.5-4-1.4-6.1c0-2.1,0.4-4.2,1.4-6c0.9-1.7,2.3-3.1,4-4
			c3.8-1.9,8.2-1.9,12,0c1.7,0.9,3.1,2.3,4,4c1,1.9,1.4,4,1.4,6c0,2.1-0.4,4.2-1.4,6.1c-0.9,1.7-2.3,3.1-4,4
			C219.7,41.4,215.3,41.4,211.5,39.6z M221.7,34.8c1-1.2,1.5-3,1.5-5.3s-0.5-4.1-1.4-5.3c-1-1.2-2.4-1.8-4.2-1.8s-3.2,0.6-4.2,1.8
			c-1,1.2-1.5,3-1.5,5.3s0.5,4.1,1.5,5.3c1,1.2,2.4,1.8,4.2,1.8C219.3,36.6,220.7,36,221.7,34.8L221.7,34.8z"/>
		<path class="st7" d="M72.1,39c-2.3-1.3-4.2-3.3-5.3-5.7c-1.2-2.5-1.9-5.3-1.9-8.6s0.6-6.2,1.8-8.6c1.2-2.4,3-4.3,5.3-5.6
			c2.3-1.3,5-2,8.2-2c3.1,0,5.8,0.7,8.1,2c2.3,1.3,4.1,3.3,5.3,5.6c1.2,2.4,1.8,5.3,1.8,8.6s-0.6,6.2-1.9,8.6
			c-1.2,2.4-3,4.3-5.3,5.7c-2.3,1.3-5,2-8.1,2S74.4,40.3,72.1,39z M87.1,33.3c1.7-2,2.5-4.9,2.5-8.6c0-3.7-0.8-6.6-2.5-8.6
			c-1.7-2-4-3-6.9-3c-2.9,0-5.3,1-7,3c-1.7,2-2.5,4.9-2.5,8.6s0.8,6.6,2.5,8.6c1.7,2,4,3,7,3C83.2,36.3,85.5,35.3,87.1,33.3z"/>
		<path class="st7" d="M117.1,19.4c1.5,1,2.7,2.3,3.5,4c0.9,1.9,1.3,3.9,1.3,6c0,2.1-0.4,4.1-1.3,6c-0.8,1.7-2,3.1-3.5,4.1
			c-1.5,1-3.3,1.5-5.1,1.4c-1.5,0-3-0.3-4.3-1c-1.2-0.7-2.2-1.7-2.9-2.9v1.1c0,0.7-0.3,1.4-0.8,1.9c-0.6,0.5-1.3,0.8-2.1,0.7
			c-0.7,0-1.5-0.2-2-0.7c-0.5-0.5-0.8-1.2-0.8-1.9V11.3c0-0.7,0.3-1.4,0.8-1.9c1.2-0.9,2.9-1,4.1,0c0.5,0.5,0.8,1.1,0.8,1.8v10.6
			c0.7-1.2,1.7-2.1,2.9-2.8c1.3-0.7,2.8-1,4.2-1C113.7,18,115.5,18.5,117.1,19.4z M114.6,34.7c1-1.3,1.5-3,1.5-5.3
			c0-2.3-0.5-4-1.5-5.2c-1-1.2-2.4-1.8-4.2-1.8s-3.2,0.6-4.2,1.8c-1,1.2-1.5,3-1.5,5.2s0.5,4,1.5,5.3s2.4,1.8,4.2,1.8
			C112,36.7,113.6,36,114.6,34.7z"/>
		<path class="st7" d="M143.6,35.1c0.3,0.5,0.5,1,0.5,1.6c0,0.9-0.6,1.7-1.7,2.3c-1.1,0.6-2.3,1.1-3.5,1.4c-1.2,0.3-2.5,0.5-3.7,0.5
			c-3.6,0-6.4-1-8.5-3.1c-2.1-2-3.1-4.8-3.1-8.4c0-2.1,0.4-4.1,1.4-6c0.9-1.7,2.2-3.1,3.8-4c1.7-1,3.7-1.5,5.6-1.4
			c1.8,0,3.7,0.4,5.2,1.3c1.5,0.9,2.7,2.2,3.5,3.7c0.9,1.8,1.3,3.7,1.2,5.6c0,1.3-0.6,1.9-1.7,1.9H129c0.2,2.1,0.8,3.6,1.8,4.6
			c1,1,2.5,1.5,4.4,1.5c0.9,0,1.7-0.1,2.6-0.4c0.9-0.3,1.7-0.6,2.5-1c0.9-0.5,1.6-0.7,2-0.7C142.8,34.5,143.3,34.8,143.6,35.1z
			 M130.7,23.4c-0.9,1-1.5,2.3-1.7,4.1h10.3c-0.1-1.8-0.5-3.2-1.4-4.2c-0.9-0.9-2-1.4-3.6-1.4C133,21.9,131.7,22.5,130.7,23.4z"/>
		<path class="st7" d="M147.9,40.1c-0.5-0.5-0.8-1.3-0.8-2V11.3c-0.1-0.7,0.2-1.5,0.8-2c0.6-0.5,1.3-0.7,2-0.7
			c0.7,0,1.5,0.2,2.1,0.7c0.6,0.5,0.9,1.2,0.8,2v26.8c0,0.8-0.3,1.5-0.8,2c-0.6,0.5-1.3,0.7-2.1,0.7
			C149.2,40.9,148.4,40.6,147.9,40.1z"/>
		<path class="st7" d="M157.2,13.3c-0.6-0.6-0.9-1.4-0.9-2.2c0-0.8,0.3-1.6,0.9-2.2c1.5-1.1,3.5-1.1,4.9,0c0.6,0.5,1,1.3,0.9,2.2
			c0,0.8-0.3,1.6-0.9,2.2C160.7,14.4,158.6,14.4,157.2,13.3z M157.6,40.2c-0.5-0.5-0.8-1.3-0.8-2V20.8c-0.1-0.7,0.2-1.5,0.8-2
			c0.6-0.5,1.3-0.7,2-0.7c0.7,0,1.5,0.2,2.1,0.7c0.6,0.5,0.9,1.2,0.8,2v17.4c0,0.8-0.3,1.5-0.8,2c-0.6,0.5-1.3,0.7-2.1,0.7
			C158.9,40.9,158.2,40.6,157.6,40.2L157.6,40.2z"/>
		<path class="st7" d="M166.6,39c-0.9-0.5-1.5-1.4-1.5-2.4c0-0.5,0.2-1.1,0.5-1.5c0.3-0.4,0.8-0.6,1.2-0.6c0.8,0.1,1.5,0.3,2.1,0.7
			c0.9,0.4,1.8,0.8,2.7,1c1,0.3,2,0.4,3.1,0.4c1,0.1,2.1-0.2,3-0.6c0.7-0.3,1.1-1,1.1-1.8c0-0.4-0.1-0.9-0.4-1.2
			c-0.5-0.4-1-0.7-1.6-0.8c-1.1-0.4-2.3-0.6-3.4-0.9c-2.7-0.5-4.6-1.3-5.8-2.3c-1.2-1-1.8-2.3-1.8-4.1c0-1.3,0.4-2.5,1.2-3.6
			c0.8-1.1,2-2,3.3-2.5c1.5-0.6,3.1-0.9,4.7-0.9c1.2,0,2.5,0.2,3.7,0.5c1.1,0.3,2.2,0.7,3.2,1.4c0.9,0.5,1.5,1.4,1.5,2.4
			c0,0.5-0.2,1.1-0.5,1.5c-0.3,0.4-0.7,0.6-1.2,0.6c-0.3,0-0.7-0.1-1-0.2c-0.4-0.2-0.8-0.4-1.2-0.6c-0.7-0.4-1.5-0.7-2.3-1
			c-0.8-0.2-1.6-0.4-2.4-0.3c-0.9-0.1-1.9,0.2-2.7,0.7c-0.6,0.4-1,1.1-1,1.8c0,0.7,0.4,1.4,1,1.7c0.7,0.4,2,0.8,3.9,1.2
			c1.6,0.3,3.3,0.8,4.8,1.4c1,0.4,1.9,1.1,2.5,2c0.5,0.9,0.8,2,0.8,3.1c0,2-0.9,3.8-2.6,4.9c-1.7,1.2-4,1.8-6.9,1.8
			C171.3,40.9,168.7,40.3,166.6,39z"/>
		<path class="st7" d="M190.9,39.6c-1.7-0.9-3-2.3-3.9-4c-0.9-1.9-1.4-3.9-1.4-6c0-2.1,0.5-4.2,1.4-6c0.9-1.7,2.3-3.1,4.1-4.1
			c1.8-1,3.9-1.5,6-1.4c1.2,0,2.4,0.2,3.6,0.5c1.1,0.3,2.2,0.8,3.2,1.4c1,0.6,1.5,1.4,1.5,2.4c0,0.6-0.1,1.1-0.5,1.6
			c-0.3,0.4-0.8,0.6-1.3,0.6c-0.4,0-0.7-0.1-1.1-0.2c-0.4-0.2-0.7-0.3-1.1-0.5c-0.6-0.4-1.3-0.7-1.9-0.9c-0.7-0.2-1.4-0.3-2.1-0.3
			c-1.9,0-3.3,0.6-4.4,1.8s-1.5,3-1.5,5.2s0.5,4,1.5,5.2c1,1.2,2.5,1.8,4.4,1.8c0.7,0,1.4-0.1,2-0.3c0.7-0.3,1.3-0.6,2-0.9
			c0.4-0.2,0.8-0.4,1.2-0.6c0.3-0.1,0.7-0.2,1-0.2c0.5,0,0.9,0.2,1.2,0.6c0.3,0.5,0.5,1,0.5,1.6c0,0.5-0.1,0.9-0.3,1.3
			c-0.3,0.4-0.7,0.8-1.1,1c-1,0.6-2.1,1.1-3.3,1.4c-1.2,0.3-2.5,0.5-3.8,0.5C194.7,41,192.7,40.5,190.9,39.6z"/>
		<path class="st7" d="M211.5,39.6c-1.7-0.9-3.1-2.3-4-4c-1-1.9-1.5-4-1.4-6.1c0-2.1,0.4-4.2,1.4-6c0.9-1.7,2.3-3.1,4-4
			c3.8-1.9,8.2-1.9,12,0c1.7,0.9,3.1,2.3,4,4c1,1.9,1.4,4,1.4,6c0,2.1-0.4,4.2-1.4,6.1c-0.9,1.7-2.3,3.1-4,4
			C219.7,41.4,215.3,41.4,211.5,39.6z M221.7,34.8c1-1.2,1.5-3,1.5-5.3s-0.5-4.1-1.4-5.3c-1-1.2-2.4-1.8-4.2-1.8s-3.2,0.6-4.2,1.8
			c-1,1.2-1.5,3-1.5,5.3s0.5,4.1,1.5,5.3c1,1.2,2.4,1.8,4.2,1.8C219.3,36.6,220.7,36,221.7,34.8L221.7,34.8z"/>
	</g>
</g>
</svg>
