<svg width="24" height="24" viewBox="0 0 24 24" fill="none" xmlns="http://www.w3.org/2000/svg">
<g clip-path="url(#clip0_1092_59)">
<path d="M4.98741 20.9628V19.8345C4.98741 19.403 4.7232 19.1204 4.26964 19.1204C4.04285 19.1204 3.79626 19.1948 3.62672 19.4402C3.49462 19.2343 3.30526 19.1204 3.02124 19.1204C2.83189 19.1204 2.64253 19.1773 2.49281 19.3832V19.1576H2.0965V20.9628H2.49281V19.966C2.49281 19.6461 2.66235 19.495 2.92656 19.495C3.19077 19.495 3.32288 19.6637 3.32288 19.966V20.9628H3.7192V19.966C3.7192 19.6461 3.90855 19.495 4.15294 19.495C4.41715 19.495 4.54926 19.6637 4.54926 19.966V20.9628H4.98741ZM10.8661 19.1576H10.2232V18.6121H9.82688V19.1576H9.468V19.5147H9.82688V20.3428C9.82688 20.7568 9.99642 21 10.45 21C10.6195 21 10.8089 20.943 10.941 20.8686L10.8265 20.529C10.712 20.6035 10.5799 20.6232 10.4852 20.6232C10.2959 20.6232 10.221 20.5093 10.221 20.3231V19.5147H10.8639V19.1576H10.8661ZM14.2304 19.1182C14.0036 19.1182 13.8517 19.2321 13.757 19.381V19.1554H13.3607V20.9606H13.757V19.9441C13.757 19.6439 13.8891 19.4731 14.1357 19.4731C14.2106 19.4731 14.3053 19.4928 14.3823 19.5103L14.4968 19.1335C14.4176 19.1182 14.3053 19.1182 14.2304 19.1182ZM9.14654 19.3066C8.95719 19.1751 8.69298 19.1182 8.40895 19.1182C7.95539 19.1182 7.65374 19.3438 7.65374 19.7009C7.65374 20.001 7.88053 20.1719 8.27684 20.2267L8.46619 20.2464C8.67316 20.2836 8.78765 20.3406 8.78765 20.4348C8.78765 20.5662 8.63573 20.6604 8.37152 20.6604C8.10731 20.6604 7.89814 20.5662 7.76603 20.472L7.57668 20.7722C7.78365 20.9233 8.06768 20.9978 8.3517 20.9978C8.88013 20.9978 9.18397 20.7524 9.18397 20.4151C9.18397 20.0952 8.93737 19.9265 8.56087 19.8696L8.37152 19.8499C8.20198 19.8301 8.06988 19.7929 8.06988 19.6812C8.06988 19.5497 8.20198 19.4753 8.41115 19.4753C8.63793 19.4753 8.86471 19.5695 8.9792 19.6264L9.14654 19.3066ZM19.6908 19.1182C19.464 19.1182 19.3121 19.2321 19.2174 19.381V19.1554H18.8211V20.9606H19.2174V19.9441C19.2174 19.6439 19.3495 19.4731 19.5961 19.4731C19.671 19.4731 19.7656 19.4928 19.8427 19.5103L19.9572 19.1379C19.8801 19.1182 19.7678 19.1182 19.6908 19.1182ZM14.6267 20.0602C14.6267 20.6057 15.0054 21 15.5911 21C15.8553 21 16.0447 20.943 16.234 20.7941L16.0447 20.4742C15.8927 20.5881 15.743 20.6429 15.5713 20.6429C15.2498 20.6429 15.023 20.4173 15.023 20.0602C15.023 19.7206 15.2498 19.495 15.5713 19.4774C15.7408 19.4774 15.8927 19.5344 16.0447 19.6461L16.234 19.3263C16.0447 19.1751 15.8553 19.1204 15.5911 19.1204C15.0054 19.1182 14.6267 19.5147 14.6267 20.0602ZM18.2927 20.0602V19.1576H17.8963V19.3832C17.7642 19.2146 17.5749 19.1204 17.3283 19.1204C16.8175 19.1204 16.4212 19.5147 16.4212 20.0602C16.4212 20.6057 16.8175 21 17.3283 21C17.5925 21 17.7818 20.9058 17.8963 20.7371V20.9628H18.2927V20.0602ZM16.8373 20.0602C16.8373 19.7403 17.0443 19.4774 17.3855 19.4774C17.707 19.4774 17.9338 19.7228 17.9338 20.0602C17.9338 20.38 17.707 20.6429 17.3855 20.6429C17.0465 20.6232 16.8373 20.3778 16.8373 20.0602ZM12.0947 19.1182C11.5663 19.1182 11.1876 19.495 11.1876 20.058C11.1876 20.6232 11.5663 20.9978 12.1145 20.9978C12.3787 20.9978 12.6429 20.9233 12.8521 20.7524L12.6628 20.4698C12.5108 20.5838 12.3215 20.6582 12.1343 20.6582C11.8877 20.6582 11.6433 20.5443 11.5861 20.2267H12.927C12.927 20.1697 12.927 20.1325 12.927 20.0755C12.9446 19.495 12.6033 19.1182 12.0947 19.1182ZM12.0947 19.4577C12.3413 19.4577 12.5108 19.6089 12.5483 19.8893H11.6037C11.6411 19.6461 11.8107 19.4577 12.0947 19.4577ZM21.941 20.0602V18.4434H21.5447V19.3832C21.4126 19.2146 21.2232 19.1204 20.9766 19.1204C20.4658 19.1204 20.0695 19.5147 20.0695 20.0602C20.0695 20.6057 20.4658 21 20.9766 21C21.2408 21 21.4302 20.9058 21.5447 20.7371V20.9628H21.941V20.0602ZM20.4856 20.0602C20.4856 19.7403 20.6926 19.4774 21.0339 19.4774C21.3553 19.4774 21.5821 19.7228 21.5821 20.0602C21.5821 20.38 21.3553 20.6429 21.0339 20.6429C20.6926 20.6232 20.4856 20.3778 20.4856 20.0602ZM7.21779 20.0602V19.1576H6.82148V19.3832C6.68937 19.2146 6.50002 19.1204 6.25342 19.1204C5.74261 19.1204 5.3463 19.5147 5.3463 20.0602C5.3463 20.6057 5.74261 21 6.25342 21C6.51763 21 6.70699 20.9058 6.82148 20.7371V20.9628H7.21779V20.0602ZM5.74482 20.0602C5.74482 19.7403 5.95178 19.4774 6.29305 19.4774C6.61451 19.4774 6.84129 19.7228 6.84129 20.0602C6.84129 20.38 6.61451 20.6429 6.29305 20.6429C5.95178 20.6232 5.74482 20.3778 5.74482 20.0602Z" fill="black"/>
<path d="M14.968 5.44806H9.0144V16.0906H14.968V5.44806Z" fill="#FF5A00"/>
<path d="M9.41073 10.7693C9.41073 8.60709 10.4323 6.68802 12 5.44807C10.8463 4.54549 9.39091 4 7.80344 4C4.04283 4 1 7.02758 1 10.7693C1 14.5111 4.04283 17.5387 7.80344 17.5387C9.39091 17.5387 10.8463 16.9932 12 16.0906C10.4301 14.8682 9.41073 12.9316 9.41073 10.7693Z" fill="#EB001B"/>
<path d="M23 10.7693C23 14.5111 19.9572 17.5387 16.1966 17.5387C14.6091 17.5387 13.1537 16.9932 12 16.0906C13.5875 14.8485 14.5893 12.9316 14.5893 10.7693C14.5893 8.60709 13.5677 6.68802 12 5.44807C13.1515 4.54549 14.6069 4 16.1944 4C19.9572 4 23 7.04729 23 10.7693Z" fill="#F79E1B"/>
</g>
<defs>
<clipPath id="clip0_1092_59">
<rect width="22" height="17" fill="white" transform="translate(1 4)"/>
</clipPath>
</defs>
</svg>
