<svg width="24" height="24" viewBox="0 0 24 24" fill="none" xmlns="http://www.w3.org/2000/svg">
<path d="M10.5333 15.899H8.75116L9.86585 9.1228H11.6479L10.5333 15.899Z" fill="#00579F"/>
<path d="M16.9938 9.28849C16.6423 9.15138 16.0847 9 15.3954 9C13.6354 9 12.3961 9.92267 12.3885 11.2418C12.3739 12.2151 13.2758 12.7556 13.9504 13.0801C14.6399 13.4117 14.8743 13.6282 14.8743 13.9238C14.8672 14.3777 14.3171 14.587 13.804 14.587C13.0925 14.587 12.7113 14.4791 12.1319 14.2265L11.8972 14.1183L11.6478 15.6394C12.0658 15.8266 12.8359 15.9927 13.6354 16C15.5054 16 16.7228 15.0916 16.7372 13.6859C16.7443 12.9145 16.2681 12.3234 15.2413 11.8404C14.618 11.5304 14.2362 11.3213 14.2362 11.0041C14.2435 10.7157 14.5591 10.4203 15.2627 10.4203C15.8421 10.4058 16.2678 10.5428 16.5902 10.6798L16.7514 10.7517L16.9938 9.28849Z" fill="#00579F"/>
<path d="M19.3624 13.4984C19.5091 13.1091 20.0739 11.6025 20.0739 11.6025C20.0665 11.617 20.2204 11.206 20.3084 10.9538L20.4329 11.5376C20.4329 11.5376 20.7704 13.1596 20.8437 13.4984C20.5652 13.4984 19.7144 13.4984 19.3624 13.4984ZM21.5622 9.1228H20.1837C19.7586 9.1228 19.4357 9.24525 19.2523 9.68503L16.6051 15.8989H18.4751C18.4751 15.8989 18.7829 15.0626 18.8491 14.8824C19.0542 14.8824 20.8733 14.8824 21.1372 14.8824C21.1884 15.1203 21.3499 15.8989 21.3499 15.8989H23L21.5622 9.1228Z" fill="#00579F"/>
<path d="M7.26265 9.1228L5.51734 13.7435L5.32662 12.8064C5.00395 11.725 3.99198 10.5502 2.86267 9.96604L4.46132 15.8918H6.3459L9.14713 9.1228H7.26265Z" fill="#00579F"/>
<path d="M3.89665 9.1228H1.02933L1 9.25972C3.23668 9.82204 4.71799 11.1775 5.3266 12.8067L4.70328 9.6924C4.60066 9.25962 4.2853 9.13708 3.89665 9.1228Z" fill="#00579F"/>
</svg>
