<svg id="Grupo_20039" data-name="Grupo 20039" xmlns="http://www.w3.org/2000/svg" width="204.323" height="40" viewBox="0 0 204.323 40">
  <path id="Trazado_27694" data-name="Trazado 27694" d="M11.014-8.651a3,3,0,0,0-1.619-2.83A2.76,2.76,0,0,0,10.554-13.8c0-1.977-1.193-3.2-3.563-3.2H1.536V-5.173H7.3C9.582-5.173,11.014-6.537,11.014-8.651ZM6.991-14.958a1.25,1.25,0,0,1,1.381,1.3A1.309,1.309,0,0,1,6.991-12.35h-3.2v-2.608ZM8.713-8.736c0,1.159-.852,1.5-1.722,1.5h-3.2v-3.051H6.94C8.082-10.287,8.713-9.725,8.713-8.736Zm10.944-5.216h-2.25v5.131A1.661,1.661,0,0,1,15.7-7.1a1.566,1.566,0,0,1-1.636-1.722v-5.131h-2.25v5.131c0,2.3,1.381,3.853,3.461,3.853a2.877,2.877,0,0,0,2.233-1.006v.8h2.148ZM29.6-8.685c.324-3.478-1.824-5.489-4.415-5.489a4.577,4.577,0,0,0-4.5,4.62,4.548,4.548,0,0,0,4.5,4.586,4.161,4.161,0,0,0,4.245-3h-2.4a2.039,2.039,0,0,1-1.858,1.023,2.234,2.234,0,0,1-2.2-1.739ZM23-10.526A2.247,2.247,0,0,1,25.163-12.2a2.2,2.2,0,0,1,2.2,1.671Zm15.5.222c0-2.318-1.364-3.87-3.426-3.87A2.9,2.9,0,0,0,32.8-13.1v-.852H30.652v8.779H32.9V-10.3a1.666,1.666,0,0,1,1.7-1.739A1.561,1.561,0,0,1,36.243-10.3v5.131h2.25Zm5.387-3.87a4.475,4.475,0,0,0-4.415,4.62A4.445,4.445,0,0,0,43.88-4.969a4.459,4.459,0,0,0,4.432-4.586A4.489,4.489,0,0,0,43.88-14.174Zm0,7.143a2.3,2.3,0,0,1-2.165-2.506,2.339,2.339,0,0,1,2.165-2.574,2.339,2.339,0,0,1,2.165,2.574A2.3,2.3,0,0,1,43.88-7.031Zm12.87-.9c0-1.909-1.568-2.387-3.75-2.745-1.091-.17-1.739-.324-1.739-.784,0-.324.426-.7,1.466-.7.835,0,1.33.324,1.466.733h2.335c-.29-1.654-1.79-2.745-3.8-2.745-2.54,0-3.75,1.432-3.75,2.813,0,1.96,2.1,2.387,3.665,2.625,1.534.239,1.841.443,1.841.938,0,.511-.682.784-1.585.784a1.988,1.988,0,0,1-1.875-1.023H48.739c.273,1.892,1.926,3.068,4.159,3.068C55.148-4.969,56.751-6.2,56.751-7.935Zm12.768.392.8,2.37h2.387L68.581-17H65.734L61.609-5.173H64l.8-2.37Zm-.716-2.1H65.5L67.149-14.5ZM75.69-17H73.44v2.1h2.25Zm0,3.051H73.44v8.779h2.25ZM85.134-10.3c0-2.318-1.364-3.87-3.426-3.87A2.9,2.9,0,0,0,79.44-13.1v-.852H77.292v8.779h2.25V-10.3a1.666,1.666,0,0,1,1.7-1.739A1.561,1.561,0,0,1,82.883-10.3v.443h2.25Zm9.41,1.619c.324-3.478-1.824-5.489-4.415-5.489a4.577,4.577,0,0,0-4.5,4.62,4.548,4.548,0,0,0,4.5,4.586,4.161,4.161,0,0,0,4.245-3h-2.4a2.039,2.039,0,0,1-1.858,1.023,2.234,2.234,0,0,1-2.2-1.739Zm-6.6-1.841A2.247,2.247,0,0,1,90.111-12.2a2.2,2.2,0,0,1,2.2,1.671Zm15.069,2.591c0-1.909-1.568-2.387-3.75-2.745-1.091-.17-1.739-.324-1.739-.784,0-.324.426-.7,1.466-.7.835,0,1.33.324,1.466.733h2.335c-.29-1.654-1.79-2.745-3.8-2.745-2.54,0-3.75,1.432-3.75,2.813,0,1.96,2.1,2.387,3.665,2.625,1.534.239,1.841.443,1.841.938,0,.511-.682.784-1.585.784a1.988,1.988,0,0,1-1.875-1.023H95c.273,1.892,1.926,3.068,4.159,3.068C101.413-4.969,103.016-6.2,103.016-7.935Zm16.416-.989h-2.421a3.307,3.307,0,0,1-2.949,1.909c-1.943,0-3.478-1.875-3.478-4.125,0-2.233,1.534-4.108,3.478-4.108a3.258,3.258,0,0,1,2.949,1.875h2.438a5.366,5.366,0,0,0-5.387-3.938,5.892,5.892,0,0,0-5.728,6.171,5.892,5.892,0,0,0,5.728,6.171A5.436,5.436,0,0,0,119.432-8.923ZM122.654-17H120.4v2.1h2.25Zm0,3.051H120.4v8.779h2.25Zm9.291,0h-2.25v5.131a1.662,1.662,0,0,1-1.7,1.722,1.566,1.566,0,0,1-1.636-1.722v-5.131H124.1v5.131c0,2.3,1.381,3.853,3.461,3.853A2.877,2.877,0,0,0,129.8-5.974v.8h2.148Zm10.041-3.9h-2.25v4.739a3.689,3.689,0,0,0-2.591-1.023,4.362,4.362,0,0,0-4.176,4.586,4.357,4.357,0,0,0,4.176,4.569,3.677,3.677,0,0,0,2.693-1.125v.938h2.148Zm-2.25,8.319a2.369,2.369,0,0,1-2.25,2.472,2.347,2.347,0,0,1-2.25-2.472,2.373,2.373,0,0,1,2.25-2.523A2.394,2.394,0,0,1,139.735-9.537Zm12.342-4.415h-2.148v.938a3.649,3.649,0,0,0-2.693-1.125,4.362,4.362,0,0,0-4.176,4.586,4.357,4.357,0,0,0,4.176,4.569,3.649,3.649,0,0,0,2.693-1.125v.938h2.148Zm-2.25,4.415a2.369,2.369,0,0,1-2.25,2.472,2.347,2.347,0,0,1-2.25-2.472,2.373,2.373,0,0,1,2.25-2.523A2.394,2.394,0,0,1,149.826-9.537Zm12.325-8.319H159.9v4.739a3.689,3.689,0,0,0-2.591-1.023,4.362,4.362,0,0,0-4.176,4.586,4.357,4.357,0,0,0,4.176,4.569A3.677,3.677,0,0,0,160-6.111v.938h2.148ZM159.9-9.537a2.369,2.369,0,0,1-2.25,2.472,2.347,2.347,0,0,1-2.25-2.472,2.373,2.373,0,0,1,2.25-2.523A2.394,2.394,0,0,1,159.9-9.537Z" transform="translate(42.172 32.164)" fill="#fff"/>
  <g id="Grupo_20035" data-name="Grupo 20035">
    <path id="Trazado_27684" data-name="Trazado 27684" d="M597.762,683.047a.191.191,0,1,0,0,.379.19.19,0,1,0,0-.379" transform="translate(-579.464 -676.583)" fill="#fff"/>
    <path id="Trazado_27685" data-name="Trazado 27685" d="M607.085,685.868h-.032a11.084,11.084,0,0,1-3.171-.745c-.414-.138-.834-.284-1.259-.4a9.975,9.975,0,0,0-2.275-.4c-.182-.005-.352-.012-.533-.012a2.381,2.381,0,0,0-1.537.4,9.815,9.815,0,0,0-.471-1.488,1.89,1.89,0,0,0-1.076-1.18.934.934,0,0,0-.278-.037,1.618,1.618,0,0,0-1.176.712l-.094.122c-.242.313-.36.469-.326.617s.237.26.687.493c.2.1.231.356.257.543v.022a5.2,5.2,0,0,1,.06.819,4.9,4.9,0,0,0-2.5-.972,4.516,4.516,0,0,0-.738-.064,7.694,7.694,0,0,0-2.668.6c-.372.146-.748.308-1.106.465a17.068,17.068,0,0,1-2.159.815,6.561,6.561,0,0,1-.767.16H585.9a.025.025,0,0,1-.015,0l-.021,0c-.116.019-.305.077-.347.232s-.011.259.224.426a4.413,4.413,0,0,0,2.026.414c.169,0,.339,0,.526-.018.244-.011.493-.04.753-.071a9.844,9.844,0,0,1,1.128-.086,3.617,3.617,0,0,1,.683.06,2.247,2.247,0,0,1,1.278,1.146c.082.121.154.234.231.336l.009.01a1.535,1.535,0,0,1,.374.78c-.011.244-.385.444-.654.592-.07.042-.143.078-.194.107-.083.057-.189.114-.29.178-.607.346-1.441.821-1.343,1.463a.755.755,0,0,0,.694.607.475.475,0,0,0,.1.006,1.706,1.706,0,0,0,.7-.205,2.914,2.914,0,0,1,.28-.123,2.577,2.577,0,0,1,.869-.159,2.447,2.447,0,0,1,1.4.444,4.14,4.14,0,0,1,.4.324,3.083,3.083,0,0,0,.435.351,1.129,1.129,0,0,0,.562.17.338.338,0,0,0,.37-.247,4.61,4.61,0,0,0,.066-.974,5.018,5.018,0,0,1,.029-.777c.023-.156.073-.47.3-.569a.63.63,0,0,1,.262-.046,2.965,2.965,0,0,1,.351.033,1.624,1.624,0,0,0,.465.028,1.785,1.785,0,0,0,1.427-1.266.7.7,0,0,1,.534-.406,1.356,1.356,0,0,0,.721-.537c.048-.057.1-.114.147-.167a2,2,0,0,1,1.59-.621c.123,0,.264,0,.418.017.138.012.283.028.422.045a10.856,10.856,0,0,0,1.085.074,3.627,3.627,0,0,0,1.056-.141,7.526,7.526,0,0,0,2.238-1.225l.1-.069c.191-.145.237-.235.184-.395s-.285-.2-.376-.212m-14.36,2.23a4.972,4.972,0,0,0-.543-.722,2.589,2.589,0,0,0-2.09-.769c-.4,0-.825.043-1.235.082s-.818.078-1.218.078a4.833,4.833,0,0,1-.569-.032,17.844,17.844,0,0,0,2-.776,16.279,16.279,0,0,1,2.157-.813,5.172,5.172,0,0,1,1.435-.2,4.671,4.671,0,0,1,2.394.615c.559.333.722.684.534,1.18a4.544,4.544,0,0,1-1.038,1.537c-.035.031-.069.072-.109.113-.209.229-.564.605-.864.605a.325.325,0,0,1-.243-.106,4.893,4.893,0,0,1-.614-.8m5.637.737a1.691,1.691,0,0,1-.56,1.057,1.354,1.354,0,0,1-.935.261h-.194c-.071,0-.14,0-.218,0a.877.877,0,0,0-.6.215c-.463.423-.455,1.347-.45,1.959v.2l-.044-.041a3.777,3.777,0,0,0-1.957-1.06,2.34,2.34,0,0,0-.4-.028,3.618,3.618,0,0,0-.783.088,3.286,3.286,0,0,0-.644.218c-.083.029-.158.066-.243.1a1.132,1.132,0,0,1-.313.073.1.1,0,0,1-.051-.011.049.049,0,0,1,0-.042c.075-.25.38-.43.62-.573l.062-.037c.611-.373,1.187-.746,1.754-1.142a7.812,7.812,0,0,0,2.75-2.86,4.647,4.647,0,0,0,.4-2.3v-.047a2.612,2.612,0,0,0-.2-.983,1.144,1.144,0,0,0-.574-.5l-.13-.07c.111-.183.416-.667.763-.667a.522.522,0,0,1,.391.224,4.759,4.759,0,0,1,.767,1.657c.028.091.06.193.088.3a10.506,10.506,0,0,1,.7,4.013m7.091-1.971a3.4,3.4,0,0,1-1.552.428h-.043c-.311-.008-.63-.045-.937-.084-.264-.029-.534-.06-.8-.075a3.051,3.051,0,0,0-1.592.293,2.544,2.544,0,0,0-.681.589,3.2,3.2,0,0,1-.463.444.322.322,0,0,1-.182.083h0c-.078,0-.084-.048-.078-.145v-.066a6.191,6.191,0,0,0-.081-.664l-.021-.122a11.271,11.271,0,0,0-.224-1.167,1.394,1.394,0,0,0-.076-.236c-.118-.344-.269-.773.029-.991a1.391,1.391,0,0,1,.7-.175s.227-.02.48-.021h.1a6.977,6.977,0,0,1,.847.05,10.2,10.2,0,0,1,1.75.385c.361.107.716.228,1.07.345a15.457,15.457,0,0,0,2.518.687,8.308,8.308,0,0,1-.752.443" transform="translate(-578.11 -676.465)" fill="#fff"/>
    <path id="Trazado_27686" data-name="Trazado 27686" d="M613.515,691.966a20.956,20.956,0,0,0-1.134-4.068,20.688,20.688,0,0,0-1.875-3.658,19.986,19.986,0,0,0-1.973-2.568,18.607,18.607,0,0,0-3.175-2.786,17.612,17.612,0,0,0-3.713-1.981,17.41,17.41,0,0,0-4.143-1.027,17.062,17.062,0,0,0-8.48,1.168,18.061,18.061,0,0,0-3.669,2.058,18.665,18.665,0,0,0-3.1,2.838,20.166,20.166,0,0,0-2.342,3.293,20.606,20.606,0,0,0-1.67,3.781,21.265,21.265,0,0,0-.916,4.166,21.959,21.959,0,0,0,.7,8.641,21.475,21.475,0,0,0,1.553,3.852,20.157,20.157,0,0,0,2.231,3.386,35.955,35.955,0,0,0,3.453,3.292,17.225,17.225,0,0,0,10.248,3.409h.005a16.912,16.912,0,0,0,4.29-.549,17.451,17.451,0,0,0,3.925-1.563,18.4,18.4,0,0,0,3.437-2.438,19.581,19.581,0,0,0,2.744-3.062,20.081,20.081,0,0,0,2.049-3.528,21.029,21.029,0,0,0,1.336-3.969,21.677,21.677,0,0,0,.218-8.688m-32.464,9.559h-.467l.419-1.43c.039-.107.062-.1.075-.058-.006.516-.017,1.014-.027,1.488m.231-3.9-.942-.391c-.051-.019-.045-.036.012-.036h2.014c.059,0,.06.018.007.036l-.9.391a.288.288,0,0,1-.189,0m-1.178-.8,1.052-.671c-.005.22-.012.443-.016.671Zm.349-2.267h1.8c.047,0,.052.016.009.036l-.8.338a.3.3,0,0,1-.176.005l-.836-.347c-.045-.02-.042-.033.007-.033m-.224-.332.968-.572c0,.177-.005.373-.014.572Zm1.31-.562.952.562h-.946c0-.193-.006-.378-.006-.562m.043,2.49,1.057.67h-1.046c-.005-.224-.011-.451-.011-.67m.1,5.363c-.007-.473-.021-.972-.029-1.483.008-.037.035-.062.071.038l.425,1.445Zm13.832,12.792a15.326,15.326,0,0,1-7.758-2.111,38.77,38.77,0,0,1,5.369.442c1.786.239,3.572.509,5.368.671.689.062,1.386.109,2.077.136a15.137,15.137,0,0,1-5.055.862m8.2-2.376a27.748,27.748,0,0,1-5.326-.084c-1.768-.169-3.525-.442-5.281-.67a41.021,41.021,0,0,0-5.468-.426c-.623.008-1.246.032-1.862.088a18.368,18.368,0,0,1-1.665-1.508,28.324,28.324,0,0,1,5.561-.117c1.858.122,3.7.366,5.543.607.928.127,1.85.25,2.773.36.464.053,2.3.183,2.746.18a38.644,38.644,0,0,0,5.535-.392,17.026,17.026,0,0,1-2.554,1.962m4.21-3.732a33.093,33.093,0,0,1-5.412.674c-.911.044-1.824.064-2.736.021s-1.837-.171-2.748-.292c-1.834-.235-3.668-.5-5.512-.685a38.82,38.82,0,0,0-5.537-.2,23.939,23.939,0,0,0-3,.321q-.51-.635-.963-1.327a32.923,32.923,0,0,1,4.951-.549,34.5,34.5,0,0,1,5.039.242c1.615.19,3.217.461,4.83.657a37.173,37.173,0,0,0,4.452.295h.01a31.27,31.27,0,0,0,4.621-.346q1.676-.244,3.315-.623a18.808,18.808,0,0,1-1.306,1.814m-24.62-5.1a1.526,1.526,0,0,1-.83-1.352l2.389-5.068c.051-.092.075-.061.062,0Zm1.587-4.786c-.036,2.276-.071,4.388-.083,5.4a4.261,4.261,0,0,1-1.238-.47l1.267-5.028c.033-.049.05.025.055.1m-.633-4.442h1.8c.045,0,.051.019.005.037l-.808.345a.235.235,0,0,1-.165,0l-.84-.348c-.047-.019-.047-.037.011-.037m-.224-.327.947-.564c-.009.181-.009.372-.009.564Zm1.323-.554.934.554h-.927c0-.19-.007-.376-.007-.554m1.921,7.439c-.035,1.091-.064,2.174-.085,3.017a.046.046,0,0,1-.029.014l-.8-3.131.422-.916Zm-.325-1.361.32-.679c.033-.045.052-.028.061,0-.011.439-.027.907-.039,1.388Zm-.793,1.691.772,2.848a4.147,4.147,0,0,1-.9.193c-.1.012-.206.018-.313.026a1.165,1.165,0,0,1-.193.006c0-.382-.014-.962-.021-1.674Zm-.669.729c-.012-.943-.028-2.047-.051-3.187.011-.092.035-.161.083-.024l.52,2.026Zm.756-1.606-.821-3.2c-.01-.062.007-.095.061,0l1.14,2.389Zm1.57,1v-.466c-.026-.834-.049-1.218-.066-1.991.005-.054.022-.089.069-.027l1.425,3.2a2.73,2.73,0,0,1-.637.909Zm.56,1.833a3.78,3.78,0,0,1-.5.4c-.013-.436-.033-1-.045-1.511Zm1.45-1.227,1.631-3.152c-.028.905-.062,2.2-.092,3.152h-.667c-.243,0-.632.014-.871,0m11.678-4.036h2.357c.063,0,.073.015.031.037-.008.006-1.077.457-1.077.457a.3.3,0,0,1-.219.006l-1.1-.457c-.066-.027-.059-.043.011-.043m-.271-.423,1.232-.794c0,.234-.009.767-.009.794Zm.447-3.126a.21.21,0,0,1,.042-.008h1.968c.021,0,.029,0,.035.008h0c.014,0,.009.017-.026.031l-.883.371a.3.3,0,0,1-.185.005l-.918-.376c-.033-.014-.042-.027-.033-.031m-.211-.382,1.051-.679c-.005.22-.005.445-.009.679Zm1.416-.667,1.06.667H602.9c-.005-.226-.008-.451-.019-.667m.055,3.381,1.23.794h-1.211c-.009-.26-.014-.535-.02-.794m3.569-.85h2.016c.057,0,.066.012.01.037l-.905.39a.293.293,0,0,1-.187,0l-.941-.39c-.053-.025-.05-.037.007-.037m-.253-.372,1.058-.676c-.005.228-.007.446-.01.676Zm1.47-.673,1.071.673h-1.058c0-.225-.007-.448-.013-.673m-.457,3.9c-.038,2.195-.08,4.557-.106,6.214a4.1,4.1,0,0,1-1.558.2l1-4.029.589-2.374c.028-.054.058-.085.073-.011m-.142-.943-1.747,6.98-.762-1.876.006-.012,2.393-5.166c.066-.1.138-.171.109.074m-1.934,7.3a3.088,3.088,0,0,1-1.314-.609l.569-1.224Zm-1.534-.8a3.491,3.491,0,0,1-.61-.776c-.012-1.058-.039-2.638-.069-4.327l1.333,3.687Zm-2.882-.85h-2.891l4.3-4.366Zm1.648-4.254c-.018.983-.058,4.135-.058,4.254h-1.287Zm5.361-.448c-.005-.071.038-.05.066.014l1.2,4.688a3.014,3.014,0,0,1-1.181,1.191c-.011-.849-.083-5.876-.087-5.893m1.577,4.674-1.473-5.559c-.043-.338.049-.218.127-.09l2.7,5.649Zm2.406-2.711a20.561,20.561,0,0,1-.774,2.619l-3.227-6.891,1.417-.57a.173.173,0,0,0,0-.323s-1.389-.89-1.469-.938l-.032-2.115c.17-.02.337-.09.5-.116a1.978,1.978,0,0,1,.548.036,1.315,1.315,0,0,0,.5,0,1.186,1.186,0,0,0,.416-.208,2.791,2.791,0,0,1-.987-.35,1.776,1.776,0,0,0-.521-.128,1.674,1.674,0,0,0-.553.019c-.021-.122-.038-.25-.061-.387h-.075a10.4,10.4,0,0,0-.113,1.8c0,.409-.007.824-.013,1.236,0,.072,0,.144-.007.22l-1.457.936a.173.173,0,0,0,0,.321v0l1.374.57-2.776,6.081-1.432-3.913,1.585-.669a.2.2,0,0,0,.009-.373s-1.5-.942-1.692-1.068c-.006-.493-.019-1.029-.024-1.494l1.448-.615v0a.176.176,0,0,0,.007-.325s-1.3-.829-1.49-.951c-.012-.963-.018-1.92-.035-2.874a1.327,1.327,0,0,0,.246-.046c.092-.025.179-.051.274-.067a1.776,1.776,0,0,1,.548.025,1.271,1.271,0,0,0,.527,0,1.24,1.24,0,0,0,.42-.208,2.8,2.8,0,0,1-.989-.348,1.87,1.87,0,0,0-.52-.128,1.585,1.585,0,0,0-.554.019c-.014-.122-.035-.249-.062-.392h-.068v.005a8.631,8.631,0,0,0-.114,1.6c-.006.489-.006.976-.016,1.463-.007.319-.012.639-.02.952l-1.471.946a.178.178,0,0,0,0,.329l1.441.612c0,.464-.011,1.01-.017,1.5l-1.685,1.062a.2.2,0,0,0,0,.374l1.55.671-4.852,4.847c-.092,0-.7.006-.781.106a.261.261,0,0,0-.076.347.773.773,0,0,0,.38.351,1.766,1.766,0,0,0,.258.114.053.053,0,0,1,.028.021,3.482,3.482,0,0,0,2.31,1.915h-.008s.05.016.039.051a.061.061,0,0,1-.01.015.247.247,0,0,1-.049.012c-1.788-.1-3.549-.364-5.312-.61-.675-.1-1.348-.191-2.024-.272-.458-.051-.912-.1-1.367-.174-.043-.017-.066-.028-.075-.044v0c-.005,0-.005-.007-.005-.007v-.009l.005,0c0-.012.012-.02.022-.031a.085.085,0,0,1,.016-.009,4.07,4.07,0,0,0,3-2.293c.033-.015.064-.031.091-.047a1.393,1.393,0,0,0,.2-.087.807.807,0,0,0,.38-.35.266.266,0,0,0-.075-.346c-.093-.111-.8-.106-.8-.106l-.005,0h-.12c-.005-.345-.012-1.251-.038-1.835a.431.431,0,0,0,.232-.011,2.583,2.583,0,0,1,.28-.07,1.46,1.46,0,0,1,.569,0,1.535,1.535,0,0,0,.558.012,1.137,1.137,0,0,0,.443-.214,3.041,3.041,0,0,1-1.01-.36,1.88,1.88,0,0,0-.544-.121,1.256,1.256,0,0,0-.566.044c-.015-.142-.026-.261-.042-.351h-.071a28.451,28.451,0,0,0-.1,2.9l-1.248,0c-.038-1.222-.1-2.855-.131-3.9l1.083-2.082c.147.056.315.067.468.119a1.378,1.378,0,0,1,.445.243,1.438,1.438,0,0,0,.423.242,1.318,1.318,0,0,0,.54.013,2.213,2.213,0,0,1-.648-.722,1.652,1.652,0,0,0-.376-.338,1.524,1.524,0,0,0-.509-.242,1.63,1.63,0,0,0,.1-.343.054.054,0,0,0-.029-.047.046.046,0,0,1-.018,0c-.055.008-.066.031-.1.068a2.839,2.839,0,0,0-.249.349l-1.148,2.225c-.014-.351-.02-.7-.028-1.052a7.016,7.016,0,0,0-.1-1.315h-.072a9.19,9.19,0,0,0-.111,1.6c-.007.479-.024.965-.04,1.446l-1.983,3.7-1.775-3.919c-.015-.487-.029-.968-.036-1.457a9.2,9.2,0,0,0-.115-1.646H587.5a9.825,9.825,0,0,0-.118,1.621c0,.493-.017.989-.027,1.478l-.572,1.211-1.388-2.913c-.011-.486-.016-.961-.024-1.424l1.267-.537a.153.153,0,0,0,0-.284s-1.068-.695-1.294-.837c-.013-1-.024-2.006-.042-3.008a1.119,1.119,0,0,0,.238-.046,2.618,2.618,0,0,1,.278-.067,1.782,1.782,0,0,1,.55.025,1.272,1.272,0,0,0,.527,0,1.3,1.3,0,0,0,.416-.208,2.616,2.616,0,0,1-.967-.344,1.775,1.775,0,0,0-.516-.13,1.518,1.518,0,0,0-.576.016c-.014-.131-.033-.264-.054-.395h-.071a10.6,10.6,0,0,0-.118,1.934c-.007.626-.019,1.249-.027,1.874,0,.117,0,.233-.007.348l-1.292.833a.155.155,0,0,0,0,.288l1.266.537c-.011.52-.023,1.366-.023,1.424l-2.577,5.446-.378-1.251h.5a.716.716,0,0,0,.214-.048c.048-.012.164-.049.164-.111s-.1-.091-.145-.107a.808.808,0,0,0-.233-.045h-.589l-.256-.864c-.005-.352-.012-.714-.021-1.06l1.423-.6a.175.175,0,0,0,.007-.323s-1.366-.868-1.464-.926c0-.256-.005-.608-.014-.843l1.283-.543a.157.157,0,0,0,0-.288s-1.138-.734-1.316-.847c-.011-.84-.018-1.4-.023-1.461a1.917,1.917,0,0,0,.452-.091,1.519,1.519,0,0,1,.478.011,1.189,1.189,0,0,0,.465.014,1.121,1.121,0,0,0,.4-.19,2.45,2.45,0,0,1-.875-.312,1.546,1.546,0,0,0-.466-.107,1.18,1.18,0,0,0-.495.025c-.018-.114-.036-.226-.065-.35h-.069a6.93,6.93,0,0,0-.106,1.387c-.007.4-.014.676-.026,1.074l-1.31.843a.157.157,0,0,0,0,.292l1.282.543c0,.237-.007.588-.013.843l-1.442.922a.173.173,0,0,0,0,.323l1.408.6c0,.346-.014.7-.021,1.05l-.251.874h-.59a.752.752,0,0,0-.22.039c-.047.016-.163.053-.163.113s.1.091.149.106a.724.724,0,0,0,.234.053h.5l-.441,1.514H579.6a19.643,19.643,0,0,1-.786-4.465,20.442,20.442,0,0,1,.21-4.524,19.774,19.774,0,0,1,1.1-4.082,18.928,18.928,0,0,1,1.866-3.621,17.616,17.616,0,0,1,1.306-1.75,10.49,10.49,0,0,0,4.423.051,15.206,15.206,0,0,1,4.461-.193l.436.068a3.9,3.9,0,0,1,.164-.659,14.537,14.537,0,0,0-5-.347,5.793,5.793,0,0,1-3.085-.414,15.471,15.471,0,0,1,1.839-1.5,6.443,6.443,0,0,0,2.495.84c.567.091,1.141.13,1.7.247a16.717,16.717,0,0,1,1.689.44c.194.063.454.175.572.226a3.168,3.168,0,0,1,.393-.58l-.364-.209a10.364,10.364,0,0,0-2.179-.776,9.521,9.521,0,0,1-1.484-.519,4.547,4.547,0,0,1-1.093-.724,15.15,15.15,0,0,1,2.174-.968,10.651,10.651,0,0,0,2.006,1.446,6.824,6.824,0,0,1,1.376,1.361,2.852,2.852,0,0,1,.659-.326,6.4,6.4,0,0,0-1.439-1.975,2.49,2.49,0,0,1-.794-1.016,14.6,14.6,0,0,1,2.477-.335l.4,3.189a2.477,2.477,0,0,1,.375-.023,3.058,3.058,0,0,1,.376.023l.4-3.184a15.6,15.6,0,0,1,1.726.178c.428.078.754.153.754.153a2.625,2.625,0,0,1-.784,1.016,6.221,6.221,0,0,0-1.431,1.981,2.62,2.62,0,0,1,.654.325,7.177,7.177,0,0,1,1.372-1.366,11.668,11.668,0,0,0,1.992-1.446,15.188,15.188,0,0,1,1.541.631l.647.335a12.131,12.131,0,0,1-1.1.726,7.519,7.519,0,0,1-1.483.519,10.487,10.487,0,0,0-2.181.776l-.366.2a2.945,2.945,0,0,1,.4.584c.132-.058.382-.166.567-.224a16.511,16.511,0,0,1,1.694-.44c.557-.117,1.132-.156,1.7-.247a6.577,6.577,0,0,0,2.49-.84,19.1,19.1,0,0,1,1.837,1.505,5.884,5.884,0,0,1-3.078.408,14.618,14.618,0,0,0-4.994.339,3,3,0,0,1,.154.644l.466-.067a15.507,15.507,0,0,1,4.439.214,10.483,10.483,0,0,0,4.411-.045c.2.225.38.451.557.688a18.556,18.556,0,0,1,2.087,3.445,19.485,19.485,0,0,1,1.364,3.947,20.249,20.249,0,0,1,.516,4.328,20.666,20.666,0,0,1-.479,4.7" transform="translate(-577.173 -675.763)" fill="#fff"/>
  </g>
</svg>
