<svg id="Grupo_20038" data-name="Grupo 20038" xmlns="http://www.w3.org/2000/svg" width="110.666" height="37.662" viewBox="0 0 110.666 37.662">
  <g id="Grupo_20022" data-name="Grupo 20022" transform="translate(60.595 2.45)">
    <path id="Trazado_27689" data-name="Trazado 27689" d="M7.723,4.449h-1.8L3.9,11.321,1.853,4.449H.054l2.929,8.915H4.807Zm5.446,2.3H11.551v.706a2.75,2.75,0,0,0-2.03-.848,3.287,3.287,0,0,0-3.147,3.455,3.284,3.284,0,0,0,3.147,3.443,2.75,2.75,0,0,0,2.03-.848v.706h1.619Zm-1.7,3.327a1.785,1.785,0,0,1-1.7,1.863,1.769,1.769,0,0,1-1.7-1.863,1.788,1.788,0,0,1,1.7-1.9A1.8,1.8,0,0,1,11.474,10.075ZM24.627,9.5a2.662,2.662,0,0,0-2.8-2.916,2.546,2.546,0,0,0-2.017.938,2.45,2.45,0,0,0-1.978-.938,2.146,2.146,0,0,0-1.708.809V6.749H14.492v6.615H16.2V9.5a1.252,1.252,0,0,1,1.272-1.31A1.176,1.176,0,0,1,18.706,9.5v3.866h1.708V9.5A1.255,1.255,0,0,1,21.7,8.187,1.184,1.184,0,0,1,22.932,9.5v3.866h1.7Zm4.188-2.916a3.372,3.372,0,0,0-3.327,3.481,3.336,3.336,0,1,0,6.667,0A3.383,3.383,0,0,0,28.815,6.582Zm0,5.382a1.729,1.729,0,0,1-1.631-1.888,1.656,1.656,0,1,1,3.263,0A1.729,1.729,0,0,1,28.815,11.964Zm9.84-.681c0-1.439-1.182-1.8-2.826-2.068-.822-.128-1.31-.244-1.31-.591,0-.244.321-.527,1.1-.527.629,0,1,.244,1.1.552h1.76a2.675,2.675,0,0,0-2.865-2.068C33.709,6.582,32.8,7.661,32.8,8.7c0,1.477,1.58,1.8,2.762,1.978,1.156.18,1.387.334,1.387.706s-.514.591-1.195.591a1.5,1.5,0,0,1-1.413-.771H32.617a2.869,2.869,0,0,0,3.134,2.312C37.447,13.518,38.654,12.593,38.654,11.283Z" transform="translate(-0.055 -4.449)" fill="#fff"/>
    <path id="Trazado_27688" data-name="Trazado 27688" d="M8.3,10.743a2.264,2.264,0,0,0-1.22-2.132,2.08,2.08,0,0,0,.873-1.747c0-1.49-.9-2.415-2.685-2.415H1.157v8.915H5.5A2.533,2.533,0,0,0,8.3,10.743ZM5.268,5.991a.942.942,0,0,1,1.04.976.986.986,0,0,1-1.04.989H2.853V5.991Zm1.3,4.689c0,.873-.642,1.13-1.3,1.13H2.853V9.51H5.229C6.09,9.51,6.565,9.934,6.565,10.679Zm8.26-3.931h-1.7v3.866a1.252,1.252,0,0,1-1.285,1.3,1.18,1.18,0,0,1-1.233-1.3V6.749h-1.7v3.866a2.616,2.616,0,0,0,2.608,2.9,2.168,2.168,0,0,0,1.683-.758v.6h1.619Zm7.63,3.969c.244-2.62-1.374-4.136-3.327-4.136a3.469,3.469,0,0,0,0,6.936,3.135,3.135,0,0,0,3.2-2.261H20.515a1.537,1.537,0,0,1-1.4.771,1.683,1.683,0,0,1-1.657-1.31ZM17.484,9.33a1.693,1.693,0,0,1,1.631-1.259A1.658,1.658,0,0,1,20.772,9.33ZM29.3,9.5A2.609,2.609,0,0,0,26.72,6.582a2.183,2.183,0,0,0-1.708.809V6.749H23.393v6.615h1.7V9.5a1.255,1.255,0,0,1,1.285-1.31A1.176,1.176,0,0,1,27.606,9.5v3.866h1.7Zm4.2-2.916a3.372,3.372,0,0,0-3.327,3.481,3.336,3.336,0,1,0,6.667,0A3.383,3.383,0,0,0,33.5,6.582Zm0,5.382a1.729,1.729,0,0,1-1.631-1.888,1.656,1.656,0,1,1,3.263,0A1.729,1.729,0,0,1,33.5,11.964Zm9.84-.681c0-1.439-1.182-1.8-2.826-2.068-.822-.128-1.31-.244-1.31-.591,0-.244.321-.527,1.1-.527.629,0,1,.244,1.1.552h1.76A2.675,2.675,0,0,0,40.31,6.582c-1.914,0-2.826,1.079-2.826,2.119,0,1.477,1.58,1.8,2.762,1.978,1.156.18,1.387.334,1.387.706s-.514.591-1.195.591a1.5,1.5,0,0,1-1.413-.771H37.3a2.869,2.869,0,0,0,3.134,2.312C42.134,13.518,43.341,12.593,43.341,11.283Z" transform="translate(6.729 6.987)" fill="#fff"/>
    <path id="Trazado_27687" data-name="Trazado 27687" d="M6.069,11.578l.6,1.785h1.8L5.362,4.449H3.217L.109,13.364h1.8l.6-1.785ZM5.529,10H3.037L4.283,6.337ZM10.86,4.449h-1.7v1.58h1.7Zm0,2.3h-1.7v6.615h1.7ZM18.118,9.5a2.609,2.609,0,0,0-2.582-2.916,2.183,2.183,0,0,0-1.708.809V6.749H12.209v6.615h1.7V9.5a1.255,1.255,0,0,1,1.285-1.31A1.176,1.176,0,0,1,16.422,9.5v.334h1.7Zm7.232,1.22c.244-2.62-1.374-4.136-3.327-4.136a3.469,3.469,0,0,0,0,6.936,3.135,3.135,0,0,0,3.2-2.261H23.41a1.537,1.537,0,0,1-1.4.771,1.683,1.683,0,0,1-1.657-1.31ZM20.378,9.33A1.693,1.693,0,0,1,22.01,8.072,1.658,1.658,0,0,1,23.667,9.33Zm11.5,1.952c0-1.439-1.182-1.8-2.826-2.068-.822-.128-1.31-.244-1.31-.591,0-.244.321-.527,1.1-.527.629,0,1,.244,1.1.552h1.76a2.675,2.675,0,0,0-2.865-2.068c-1.914,0-2.826,1.079-2.826,2.119,0,1.477,1.58,1.8,2.762,1.978,1.156.18,1.387.334,1.387.706s-.514.591-1.195.591a1.5,1.5,0,0,1-1.413-.771H25.838a2.869,2.869,0,0,0,3.134,2.312C30.668,13.518,31.875,12.593,31.875,11.283Z" transform="translate(14.135 18.424)" fill="#fff"/>
  </g>
  <path id="Trazado_27666" data-name="Trazado 27666" d="M161.762,84.633h0a7.027,7.027,0,0,0-6.285,3.88l-9.454,18.266a9.406,9.406,0,0,0-4.77-4.147A9.034,9.034,0,0,0,140.1,87.284a18.333,18.333,0,0,0-8.568-2.105H117.4a5.251,5.251,0,0,0-5.258,5.253v26.314A5.251,5.251,0,0,0,117.4,122h15.291a21.03,21.03,0,0,0,8.3-1.7l.969-.469c.055-.026.108-.055.159-.082a5.251,5.251,0,0,0,9.285-.537,2.787,2.787,0,0,1,2.438-1.694h15.844a2.79,2.79,0,0,1,2.438,1.694,5.254,5.254,0,0,0,10.038-2.164,5.169,5.169,0,0,0-.678-2.585l-13.43-25.949a7.029,7.029,0,0,0-6.287-3.88Z" transform="translate(-112.14 -84.633)" fill="#fff"/>
</svg>
