<?xml version="1.0" encoding="utf-8"?>
<!-- Generator: Adobe Illustrator 25.4.1, SVG Export Plug-In . SVG Version: 6.00 Build 0)  -->
<svg version="1.1" id="Layer_1" xmlns="http://www.w3.org/2000/svg" xmlns:xlink="http://www.w3.org/1999/xlink" x="0px" y="0px"
	 viewBox="0 0 86 46" style="enable-background:new 0 0 86 46;" xml:space="preserve">
<style type="text/css">
	
		.st0{clip-path:url(#SVGID_00000119836718294790584810000017837199979927033535_);fill:url(#SVGID_00000175317187276430725010000005715495207671593649_);}
</style>
<g>
	<g>
		<g>
			<g>
				<defs>
					<path id="SVGID_1_" d="M60.8,0L60.8,0c-3.4,0-6.3,1.9-7.7,4.7L41.6,27c-1.3-2.3-3.3-4.1-5.8-5.1c2.8-2,4.6-5.3,4.6-9
						c0-4.3-2.4-8-6-9.8c-3.1-1.6-6.7-2.6-10.5-2.6H6.7c-3.6,0-6.4,2.9-6.4,6.4v32.1c0,3.5,2.9,6.4,6.4,6.4h6.2h12.4
						c3.6,0,7-0.7,10.1-2.1l1.2-0.6c0.1,0,0.1-0.1,0.2-0.1C38,44.7,40,46,42.3,46c2.6,0,4.8-1.5,5.8-3.8c0.5-1.2,1.6-2,3-2.1h19.4
						c1.3,0.1,2.5,0.9,3,2.1c1,2.2,3.2,3.8,5.8,3.8c3.5,0,6.4-2.9,6.4-6.4c0-1.2-0.3-2.2-0.8-3.2L68.5,4.7C67.1,1.9,64.2,0,60.8,0
						C60.9,0,60.8,0,60.8,0z"/>
				</defs>
				<clipPath id="SVGID_00000081611351826055362230000000497405366446930066_">
					<use xlink:href="#SVGID_1_"  style="overflow:visible;"/>
				</clipPath>
				
					<linearGradient id="SVGID_00000029025556048034790020000003009172774613033659_" gradientUnits="userSpaceOnUse" x1="-1918.9108" y1="33.3351" x2="-1918.491" y2="33.3351" gradientTransform="matrix(-3.000000e-06 -69.3731 69.3731 -3.000000e-06 -2269.5674 -133077.9219)">
					<stop  offset="0" style="stop-color:#27B7EA"/>
					<stop  offset="2.950000e-02" style="stop-color:#1ABBEC"/>
					<stop  offset="8.750000e-02" style="stop-color:#3DC4E1"/>
					<stop  offset="0.1676" style="stop-color:#82CFCC"/>
					<stop  offset="0.2124" style="stop-color:#AADAC3"/>
					<stop  offset="0.3102" style="stop-color:#C9E3B6"/>
					<stop  offset="0.4164" style="stop-color:#EDEFA6"/>
					<stop  offset="0.5128" style="stop-color:#EFEA92"/>
					<stop  offset="0.7085" style="stop-color:#F4E162"/>
					<stop  offset="0.9837" style="stop-color:#FBD115"/>
					<stop  offset="1" style="stop-color:#FAD012"/>
					<stop  offset="1" style="stop-color:#FAD704"/>
				</linearGradient>
				
					<rect x="0.2" y="0" style="clip-path:url(#SVGID_00000081611351826055362230000000497405366446930066_);fill:url(#SVGID_00000029025556048034790020000003009172774613033659_);" width="85.5" height="46"/>
			</g>
		</g>
	</g>
</g>
</svg>
